<?xml version="1.0" encoding="UTF-8" standalone="no"?><svg xmlns="http://www.w3.org/2000/svg" xmlns:xlink="http://www.w3.org/1999/xlink" contentStyleType="text/css" height="449px" preserveAspectRatio="none" style="width:407px;height:449px;background:#FFFFFF;" version="1.1" viewBox="0 0 407 449" width="407px" zoomAndPan="magnify"><defs/><g><!--class Status--><g id="elem_Status"><rect codeLine="2" fill="#F1F1F1" height="97.4648" id="Status" rx="2.5" ry="2.5" style="stroke:#181818;stroke-width:0.5;" width="84" x="7" y="40"/><ellipse cx="26.5" cy="56" fill="#EB937F" rx="11" ry="11" style="stroke:#181818;stroke-width:1.0;"/><path d="M30.1143,62.5 L22.3945,62.5 L22.3945,50.1069 L30.1143,50.1069 L30.1143,52.2651 L24.8433,52.2651 L24.8433,54.938 L29.6162,54.938 L29.6162,57.0962 L24.8433,57.0962 L24.8433,60.3418 L30.1143,60.3418 Z " fill="#000000"/><text fill="#000000" font-family="sans-serif" font-size="14" lengthAdjust="spacing" textLength="42" x="41.5" y="61.291">Status</text><line style="stroke:#181818;stroke-width:0.5;" x1="8" x2="90" y1="72" y2="72"/><text fill="#000000" font-family="sans-serif" font-size="14" lengthAdjust="spacing" textLength="55" x="13" y="89.5352">running</text><text fill="#000000" font-family="sans-serif" font-size="14" lengthAdjust="spacing" textLength="72" x="13" y="106.0234">succeeded</text><text fill="#000000" font-family="sans-serif" font-size="14" lengthAdjust="spacing" textLength="38" x="13" y="122.5117">failed</text><line style="stroke:#181818;stroke-width:0.5;" x1="8" x2="90" y1="129.4648" y2="129.4648"/></g><!--class Jobs--><g id="elem_Jobs"><rect codeLine="8" fill="#F1F1F1" height="163.418" id="Jobs" rx="2.5" ry="2.5" style="stroke:#181818;stroke-width:0.5;" width="171" x="126.5" y="7"/><ellipse cx="193.25" cy="23" fill="#ADD1B2" rx="11" ry="11" style="stroke:#181818;stroke-width:1.0;"/><path d="M196.8643,29.5 L189.1445,29.5 L189.1445,17.1069 L196.8643,17.1069 L196.8643,19.2651 L191.5933,19.2651 L191.5933,21.938 L196.3662,21.938 L196.3662,24.0962 L191.5933,24.0962 L191.5933,27.3418 L196.8643,27.3418 Z " fill="#000000"/><text fill="#000000" font-family="sans-serif" font-size="14" lengthAdjust="spacing" textLength="29" x="213.75" y="28.291">Jobs</text><line style="stroke:#181818;stroke-width:0.5;" x1="127.5" x2="296.5" y1="39" y2="39"/><ellipse cx="137.5" cy="52.7441" fill="#000000" rx="3" ry="3" style="stroke:#000000;stroke-width:1.0;"/><text fill="#000000" font-family="sans-serif" font-size="14" lengthAdjust="spacing" textLength="52" x="146.5" y="56.5352">id: ULID</text><line style="stroke:#181818;stroke-width:1.0;" x1="127.5" x2="296.5" y1="63.4883" y2="63.4883"/><ellipse cx="137.5" cy="77.2324" fill="#000000" rx="3" ry="3" style="stroke:#000000;stroke-width:1.0;"/><text fill="#000000" font-family="sans-serif" font-size="14" lengthAdjust="spacing" textLength="91" x="146.5" y="81.0234">status: Status</text><ellipse cx="137.5" cy="93.7207" fill="#000000" rx="3" ry="3" style="stroke:#000000;stroke-width:1.0;"/><text fill="#000000" font-family="sans-serif" font-size="14" lengthAdjust="spacing" textLength="120" x="146.5" y="97.5117">image_key: string</text><text fill="#000000" font-family="sans-serif" font-size="14" lengthAdjust="spacing" textLength="124" x="146.5" y="114">output_key: string</text><ellipse cx="137.5" cy="126.6973" fill="#000000" rx="3" ry="3" style="stroke:#000000;stroke-width:1.0;"/><text fill="#000000" font-family="sans-serif" font-size="14" lengthAdjust="spacing" textLength="139" x="146.5" y="130.4883">created_at: datetime</text><ellipse cx="137.5" cy="143.1855" fill="#000000" rx="3" ry="3" style="stroke:#000000;stroke-width:1.0;"/><text fill="#000000" font-family="sans-serif" font-size="14" lengthAdjust="spacing" textLength="145" x="146.5" y="146.9766">updated_at: datetime</text><text fill="#000000" font-family="sans-serif" font-size="14" lengthAdjust="spacing" textLength="139" x="146.5" y="163.4648">deleted_at: datetime</text></g><!--class Files--><g id="elem_Files"><rect codeLine="19" fill="#F1F1F1" height="196.3945" id="Files" rx="2.5" ry="2.5" style="stroke:#181818;stroke-width:0.5;" width="171" x="23.5" y="238.5"/><ellipse cx="89.25" cy="254.5" fill="#ADD1B2" rx="11" ry="11" style="stroke:#181818;stroke-width:1.0;"/><path d="M92.8643,261 L85.1445,261 L85.1445,248.6069 L92.8643,248.6069 L92.8643,250.7651 L87.5933,250.7651 L87.5933,253.438 L92.3662,253.438 L92.3662,255.5962 L87.5933,255.5962 L87.5933,258.8418 L92.8643,258.8418 Z " fill="#000000"/><text fill="#000000" font-family="sans-serif" font-size="14" lengthAdjust="spacing" textLength="31" x="109.75" y="259.791">Files</text><line style="stroke:#181818;stroke-width:0.5;" x1="24.5" x2="193.5" y1="270.5" y2="270.5"/><ellipse cx="34.5" cy="284.2441" fill="#000000" rx="3" ry="3" style="stroke:#000000;stroke-width:1.0;"/><text fill="#000000" font-family="sans-serif" font-size="14" lengthAdjust="spacing" textLength="52" x="43.5" y="288.0352">id: ULID</text><line style="stroke:#181818;stroke-width:1.0;" x1="24.5" x2="193.5" y1="294.9883" y2="294.9883"/><ellipse cx="34.5" cy="308.7324" fill="#000000" rx="3" ry="3" style="stroke:#000000;stroke-width:1.0;"/><text fill="#000000" font-family="sans-serif" font-size="14" lengthAdjust="spacing" textLength="116" x="43.5" y="312.5234">job_id: ULID «FK»</text><ellipse cx="34.5" cy="325.2207" fill="#000000" rx="3" ry="3" style="stroke:#000000;stroke-width:1.0;"/><text fill="#000000" font-family="sans-serif" font-size="14" lengthAdjust="spacing" textLength="126" x="43.5" y="329.0117">is_output: number</text><ellipse cx="34.5" cy="341.709" fill="#000000" rx="3" ry="3" style="stroke:#000000;stroke-width:1.0;"/><text fill="#000000" font-family="sans-serif" font-size="14" lengthAdjust="spacing" textLength="99" x="43.5" y="345.5">file_key: string</text><ellipse cx="34.5" cy="358.1973" fill="#000000" rx="3" ry="3" style="stroke:#000000;stroke-width:1.0;"/><text fill="#000000" font-family="sans-serif" font-size="14" lengthAdjust="spacing" textLength="136" x="43.5" y="361.9883">content_type: string</text><ellipse cx="34.5" cy="374.6855" fill="#000000" rx="3" ry="3" style="stroke:#000000;stroke-width:1.0;"/><text fill="#000000" font-family="sans-serif" font-size="14" lengthAdjust="spacing" textLength="89" x="43.5" y="378.4766">size: number</text><ellipse cx="34.5" cy="391.1738" fill="#000000" rx="3" ry="3" style="stroke:#000000;stroke-width:1.0;"/><text fill="#000000" font-family="sans-serif" font-size="14" lengthAdjust="spacing" textLength="139" x="43.5" y="394.9648">created_at: datetime</text><ellipse cx="34.5" cy="407.6621" fill="#000000" rx="3" ry="3" style="stroke:#000000;stroke-width:1.0;"/><text fill="#000000" font-family="sans-serif" font-size="14" lengthAdjust="spacing" textLength="145" x="43.5" y="411.4531">updated_at: datetime</text><text fill="#000000" font-family="sans-serif" font-size="14" lengthAdjust="spacing" textLength="139" x="43.5" y="427.9414">deleted_at: datetime</text></g><!--class ExtractedTexts--><g id="elem_ExtractedTexts"><rect codeLine="32" fill="#F1F1F1" height="212.8828" id="ExtractedTexts" rx="2.5" ry="2.5" style="stroke:#181818;stroke-width:0.5;" width="171" x="229.5" y="230"/><ellipse cx="260.7" cy="246" fill="#ADD1B2" rx="11" ry="11" style="stroke:#181818;stroke-width:1.0;"/><path d="M264.3143,252.5 L256.5945,252.5 L256.5945,240.1069 L264.3143,240.1069 L264.3143,242.2651 L259.0433,242.2651 L259.0433,244.938 L263.8162,244.938 L263.8162,247.0962 L259.0433,247.0962 L259.0433,250.3418 L264.3143,250.3418 Z " fill="#000000"/><text fill="#000000" font-family="sans-serif" font-size="14" lengthAdjust="spacing" textLength="103" x="278.3" y="251.291">ExtractedTexts</text><line style="stroke:#181818;stroke-width:0.5;" x1="230.5" x2="399.5" y1="262" y2="262"/><ellipse cx="240.5" cy="275.7441" fill="#000000" rx="3" ry="3" style="stroke:#000000;stroke-width:1.0;"/><text fill="#000000" font-family="sans-serif" font-size="14" lengthAdjust="spacing" textLength="52" x="249.5" y="279.5352">id: ULID</text><line style="stroke:#181818;stroke-width:1.0;" x1="230.5" x2="399.5" y1="286.4883" y2="286.4883"/><ellipse cx="240.5" cy="300.2324" fill="#000000" rx="3" ry="3" style="stroke:#000000;stroke-width:1.0;"/><text fill="#000000" font-family="sans-serif" font-size="14" lengthAdjust="spacing" textLength="116" x="249.5" y="304.0234">job_id: ULID «FK»</text><ellipse cx="240.5" cy="316.7207" fill="#000000" rx="3" ry="3" style="stroke:#000000;stroke-width:1.0;"/><text fill="#000000" font-family="sans-serif" font-size="14" lengthAdjust="spacing" textLength="75" x="249.5" y="320.5117">text: string</text><ellipse cx="240.5" cy="333.209" fill="#000000" rx="3" ry="3" style="stroke:#000000;stroke-width:1.0;"/><text fill="#000000" font-family="sans-serif" font-size="14" lengthAdjust="spacing" textLength="85" x="249.5" y="337">top: number</text><ellipse cx="240.5" cy="349.6973" fill="#000000" rx="3" ry="3" style="stroke:#000000;stroke-width:1.0;"/><text fill="#000000" font-family="sans-serif" font-size="14" lengthAdjust="spacing" textLength="112" x="249.5" y="353.4883">bottom: number</text><ellipse cx="240.5" cy="366.1855" fill="#000000" rx="3" ry="3" style="stroke:#000000;stroke-width:1.0;"/><text fill="#000000" font-family="sans-serif" font-size="14" lengthAdjust="spacing" textLength="84" x="249.5" y="369.9766">left: number</text><ellipse cx="240.5" cy="382.6738" fill="#000000" rx="3" ry="3" style="stroke:#000000;stroke-width:1.0;"/><text fill="#000000" font-family="sans-serif" font-size="14" lengthAdjust="spacing" textLength="95" x="249.5" y="386.4648">right: number</text><ellipse cx="240.5" cy="399.1621" fill="#000000" rx="3" ry="3" style="stroke:#000000;stroke-width:1.0;"/><text fill="#000000" font-family="sans-serif" font-size="14" lengthAdjust="spacing" textLength="139" x="249.5" y="402.9531">created_at: datetime</text><ellipse cx="240.5" cy="415.6504" fill="#000000" rx="3" ry="3" style="stroke:#000000;stroke-width:1.0;"/><text fill="#000000" font-family="sans-serif" font-size="14" lengthAdjust="spacing" textLength="145" x="249.5" y="419.4414">updated_at: datetime</text><text fill="#000000" font-family="sans-serif" font-size="14" lengthAdjust="spacing" textLength="139" x="249.5" y="435.9297">deleted_at: datetime</text></g><!--link Jobs to ExtractedTexts--><g id="link_Jobs_ExtractedTexts"><path codeLine="46" d="M249.43,178.9 C255.13,192.52 261.08,206.73 266.97,220.79 " fill="none" id="Jobs-ExtractedTexts" style="stroke:#181818;stroke-width:1.0;stroke-dasharray:7.0,7.0;"/><line style="stroke:#181818;stroke-width:1.0;" x1="244.3098" x2="251.6864" y1="177.0264" y2="173.9302"/><line style="stroke:#181818;stroke-width:1.0;" x1="245.4709" x2="252.8474" y1="179.7926" y2="176.6964"/><line style="stroke:#181818;stroke-width:1.0;" x1="249.5462" x2="246.45" y1="179.1666" y2="171.79"/><line style="stroke:#181818;stroke-width:1.0;" x1="266.956" x2="275.5762" y1="220.7483" y2="225.817"/><line style="stroke:#181818;stroke-width:1.0;" x1="266.956" x2="264.5038" y1="220.7483" y2="230.443"/><line style="stroke:#181818;stroke-width:1.0;" x1="266.956" x2="270.04" y1="220.7483" y2="228.13"/><ellipse cx="264.643" cy="215.2121" fill="none" rx="4" ry="4" style="stroke:#181818;stroke-width:1.0;"/></g><!--link Jobs to Files--><g id="link_Jobs_Files"><path codeLine="47" d="M174.47,179.14 C167.61,195.51 160.4,212.75 153.36,229.54 " fill="none" id="Jobs-Files" style="stroke:#181818;stroke-width:1.0;stroke-dasharray:7.0,7.0;"/><line style="stroke:#181818;stroke-width:1.0;" x1="172.3136" x2="179.6902" y1="173.9302" y2="177.0264"/><line style="stroke:#181818;stroke-width:1.0;" x1="171.1526" x2="178.5291" y1="176.6964" y2="179.7926"/><line style="stroke:#181818;stroke-width:1.0;" x1="174.4538" x2="177.55" y1="179.1666" y2="171.79"/><line style="stroke:#181818;stroke-width:1.0;" x1="153.3791" x2="155.8246" y1="229.5105" y2="239.2068"/><line style="stroke:#181818;stroke-width:1.0;" x1="153.3791" x2="144.7554" y1="229.5105" y2="234.5732"/><line style="stroke:#181818;stroke-width:1.0;" x1="153.3791" x2="150.29" y1="229.5105" y2="236.89"/><ellipse cx="155.6959" cy="223.9758" fill="none" rx="4" ry="4" style="stroke:#181818;stroke-width:1.0;"/></g><!--SRC=[jL91Ri8m4Bpd5Nj6WWTOY1D5AkqDE5jEl4dT9dPahoK2zEzTsQqg0prKQc_ZcV7kxDfeum0xKXG3d2i07wqrjcCKOjCWQjICMsLw1kzLXPOCJR1rTVRFm6W1X-V7DH_cyyI4L4vybiscGNKett0IhFhS0C156YDTqJDeF2f2BHK9q8p839Y4EEfx0e367c-4xxGRJlzpt5TNooyMbilDqsgLdK7cW09uIJNwnBPSwpQniyIz94qZ5a8m9ook__bi3qVogc737e_q-o69RnM9oOr5uDeHkQ6WUcpBdNZJlT0_ZPb-skMoMBZprQo5b9wu-W00]--></g></svg>