<?xml version="1.0" encoding="us-ascii" standalone="no"?><svg xmlns="http://www.w3.org/2000/svg" xmlns:xlink="http://www.w3.org/1999/xlink" contentStyleType="text/css" height="788px" preserveAspectRatio="none" style="width:499px;height:788px;background:#FFFFFF;" version="1.1" viewBox="0 0 499 788" width="499px" zoomAndPan="magnify"><defs/><g><!--class JobStatus--><g id="elem_JobStatus"><rect codeLine="2" fill="#F1F1F1" height="97.4648" id="JobStatus" rx="2.5" ry="2.5" style="stroke:#181818;stroke-width:0.5;" width="96" x="227.5" y="40"/><ellipse cx="242.5" cy="56" fill="#EB937F" rx="11" ry="11" style="stroke:#181818;stroke-width:1.0;"/><path d="M246.1143,62.5 L238.3945,62.5 L238.3945,50.1069 L246.1143,50.1069 L246.1143,52.2651 L240.8433,52.2651 L240.8433,54.938 L245.6162,54.938 L245.6162,57.0962 L240.8433,57.0962 L240.8433,60.3418 L246.1143,60.3418 Z " fill="#000000"/><text fill="#000000" font-family="sans-serif" font-size="14" lengthAdjust="spacing" textLength="64" x="256.5" y="61.291">JobStatus</text><line style="stroke:#181818;stroke-width:0.5;" x1="228.5" x2="322.5" y1="72" y2="72"/><text fill="#000000" font-family="sans-serif" font-size="14" lengthAdjust="spacing" textLength="55" x="233.5" y="89.5352">running</text><text fill="#000000" font-family="sans-serif" font-size="14" lengthAdjust="spacing" textLength="72" x="233.5" y="106.0234">succeeded</text><text fill="#000000" font-family="sans-serif" font-size="14" lengthAdjust="spacing" textLength="38" x="233.5" y="122.5117">failed</text><line style="stroke:#181818;stroke-width:0.5;" x1="228.5" x2="322.5" y1="129.4648" y2="129.4648"/></g><!--class InputFileStatus--><g id="elem_InputFileStatus"><rect codeLine="8" fill="#F1F1F1" height="97.4648" id="InputFileStatus" rx="2.5" ry="2.5" style="stroke:#181818;stroke-width:0.5;" width="134" x="358.5" y="40"/><ellipse cx="373.5" cy="56" fill="#EB937F" rx="11" ry="11" style="stroke:#181818;stroke-width:1.0;"/><path d="M377.1143,62.5 L369.3945,62.5 L369.3945,50.1069 L377.1143,50.1069 L377.1143,52.2651 L371.8433,52.2651 L371.8433,54.938 L376.6162,54.938 L376.6162,57.0962 L371.8433,57.0962 L371.8433,60.3418 L377.1143,60.3418 Z " fill="#000000"/><text fill="#000000" font-family="sans-serif" font-size="14" lengthAdjust="spacing" textLength="102" x="387.5" y="61.291">InputFileStatus</text><line style="stroke:#181818;stroke-width:0.5;" x1="359.5" x2="491.5" y1="72" y2="72"/><text fill="#000000" font-family="sans-serif" font-size="14" lengthAdjust="spacing" textLength="55" x="364.5" y="89.5352">running</text><text fill="#000000" font-family="sans-serif" font-size="14" lengthAdjust="spacing" textLength="72" x="364.5" y="106.0234">succeeded</text><text fill="#000000" font-family="sans-serif" font-size="14" lengthAdjust="spacing" textLength="38" x="364.5" y="122.5117">failed</text><line style="stroke:#181818;stroke-width:0.5;" x1="359.5" x2="491.5" y1="129.4648" y2="129.4648"/></g><!--class Jobs--><g id="elem_Jobs"><rect codeLine="14" fill="#F1F1F1" height="163.418" id="Jobs" rx="2.5" ry="2.5" style="stroke:#181818;stroke-width:0.5;" width="185" x="7" y="7"/><ellipse cx="80.75" cy="23" fill="#ADD1B2" rx="11" ry="11" style="stroke:#181818;stroke-width:1.0;"/><path d="M84.3643,29.5 L76.6445,29.5 L76.6445,17.1069 L84.3643,17.1069 L84.3643,19.2651 L79.0933,19.2651 L79.0933,21.938 L83.8662,21.938 L83.8662,24.0962 L79.0933,24.0962 L79.0933,27.3418 L84.3643,27.3418 Z " fill="#000000"/><text fill="#000000" font-family="sans-serif" font-size="14" lengthAdjust="spacing" textLength="29" x="101.25" y="28.291">Jobs</text><line style="stroke:#181818;stroke-width:0.5;" x1="8" x2="191" y1="39" y2="39"/><ellipse cx="18" cy="52.7441" fill="#000000" rx="3" ry="3" style="stroke:#000000;stroke-width:1.0;"/><text fill="#000000" font-family="sans-serif" font-size="14" lengthAdjust="spacing" textLength="52" x="27" y="56.5352">id: ULID</text><line style="stroke:#181818;stroke-width:1.0;" x1="8" x2="191" y1="63.4883" y2="63.4883"/><ellipse cx="18" cy="77.2324" fill="#000000" rx="3" ry="3" style="stroke:#000000;stroke-width:1.0;"/><text fill="#000000" font-family="sans-serif" font-size="14" lengthAdjust="spacing" textLength="86" x="27" y="81.0234">name: string</text><ellipse cx="18" cy="93.7207" fill="#000000" rx="3" ry="3" style="stroke:#000000;stroke-width:1.0;"/><text fill="#000000" font-family="sans-serif" font-size="14" lengthAdjust="spacing" textLength="159" x="27" y="97.5117">original_file_key: string</text><ellipse cx="18" cy="110.209" fill="#000000" rx="3" ry="3" style="stroke:#000000;stroke-width:1.0;"/><text fill="#000000" font-family="sans-serif" font-size="14" lengthAdjust="spacing" textLength="113" x="27" y="114">status: JobStatus</text><ellipse cx="18" cy="126.6973" fill="#000000" rx="3" ry="3" style="stroke:#000000;stroke-width:1.0;"/><text fill="#000000" font-family="sans-serif" font-size="14" lengthAdjust="spacing" textLength="139" x="27" y="130.4883">created_at: datetime</text><ellipse cx="18" cy="143.1855" fill="#000000" rx="3" ry="3" style="stroke:#000000;stroke-width:1.0;"/><text fill="#000000" font-family="sans-serif" font-size="14" lengthAdjust="spacing" textLength="145" x="27" y="146.9766">updated_at: datetime</text><text fill="#000000" font-family="sans-serif" font-size="14" lengthAdjust="spacing" textLength="139" x="27" y="163.4648">deleted_at: datetime</text></g><!--class InputFiles--><g id="elem_InputFiles"><rect codeLine="25" fill="#F1F1F1" height="245.8594" id="InputFiles" rx="2.5" ry="2.5" style="stroke:#181818;stroke-width:0.5;" width="177" x="11" y="230"/><ellipse cx="61.75" cy="246" fill="#ADD1B2" rx="11" ry="11" style="stroke:#181818;stroke-width:1.0;"/><path d="M65.3643,252.5 L57.6445,252.5 L57.6445,240.1069 L65.3643,240.1069 L65.3643,242.2651 L60.0933,242.2651 L60.0933,244.938 L64.8662,244.938 L64.8662,247.0962 L60.0933,247.0962 L60.0933,250.3418 L65.3643,250.3418 Z " fill="#000000"/><text fill="#000000" font-family="sans-serif" font-size="14" lengthAdjust="spacing" textLength="67" x="82.25" y="251.291">InputFiles</text><line style="stroke:#181818;stroke-width:0.5;" x1="12" x2="187" y1="262" y2="262"/><ellipse cx="22" cy="275.7441" fill="#000000" rx="3" ry="3" style="stroke:#000000;stroke-width:1.0;"/><text fill="#000000" font-family="sans-serif" font-size="14" lengthAdjust="spacing" textLength="52" x="31" y="279.5352">id: ULID</text><line style="stroke:#181818;stroke-width:1.0;" x1="12" x2="187" y1="286.4883" y2="286.4883"/><ellipse cx="22" cy="300.2324" fill="#000000" rx="3" ry="3" style="stroke:#000000;stroke-width:1.0;"/><text fill="#000000" font-family="sans-serif" font-size="14" lengthAdjust="spacing" textLength="116" x="31" y="304.0234">job_id: ULID &#171;FK&#187;</text><ellipse cx="22" cy="316.7207" fill="#000000" rx="3" ry="3" style="stroke:#000000;stroke-width:1.0;"/><text fill="#000000" font-family="sans-serif" font-size="14" lengthAdjust="spacing" textLength="99" x="31" y="320.5117">file_key: string</text><ellipse cx="22" cy="333.209" fill="#000000" rx="3" ry="3" style="stroke:#000000;stroke-width:1.0;"/><text fill="#000000" font-family="sans-serif" font-size="14" lengthAdjust="spacing" textLength="114" x="31" y="337">file_name: string</text><ellipse cx="22" cy="349.6973" fill="#000000" rx="3" ry="3" style="stroke:#000000;stroke-width:1.0;"/><text fill="#000000" font-family="sans-serif" font-size="14" lengthAdjust="spacing" textLength="136" x="31" y="353.4883">content_type: string</text><ellipse cx="22" cy="366.1855" fill="#000000" rx="3" ry="3" style="stroke:#000000;stroke-width:1.0;"/><text fill="#000000" font-family="sans-serif" font-size="14" lengthAdjust="spacing" textLength="89" x="31" y="369.9766">size: number</text><ellipse cx="22" cy="382.6738" fill="#000000" rx="3" ry="3" style="stroke:#000000;stroke-width:1.0;"/><text fill="#000000" font-family="sans-serif" font-size="14" lengthAdjust="spacing" textLength="100" x="31" y="386.4648">width: number</text><ellipse cx="22" cy="399.1621" fill="#000000" rx="3" ry="3" style="stroke:#000000;stroke-width:1.0;"/><text fill="#000000" font-family="sans-serif" font-size="14" lengthAdjust="spacing" textLength="106" x="31" y="402.9531">height: number</text><ellipse cx="22" cy="415.6504" fill="#000000" rx="3" ry="3" style="stroke:#000000;stroke-width:1.0;"/><text fill="#000000" font-family="sans-serif" font-size="14" lengthAdjust="spacing" textLength="151" x="31" y="419.4414">status: InputFileStatus</text><ellipse cx="22" cy="432.1387" fill="#000000" rx="3" ry="3" style="stroke:#000000;stroke-width:1.0;"/><text fill="#000000" font-family="sans-serif" font-size="14" lengthAdjust="spacing" textLength="139" x="31" y="435.9297">created_at: datetime</text><ellipse cx="22" cy="448.627" fill="#000000" rx="3" ry="3" style="stroke:#000000;stroke-width:1.0;"/><text fill="#000000" font-family="sans-serif" font-size="14" lengthAdjust="spacing" textLength="145" x="31" y="452.418">updated_at: datetime</text><text fill="#000000" font-family="sans-serif" font-size="14" lengthAdjust="spacing" textLength="139" x="31" y="468.9063">deleted_at: datetime</text></g><!--class OutputFiles--><g id="elem_OutputFiles"><rect codeLine="41" fill="#F1F1F1" height="245.8594" id="OutputFiles" rx="2.5" ry="2.5" style="stroke:#181818;stroke-width:0.5;" width="184" x="223.5" y="230"/><ellipse cx="271.75" cy="246" fill="#ADD1B2" rx="11" ry="11" style="stroke:#181818;stroke-width:1.0;"/><path d="M275.3643,252.5 L267.6445,252.5 L267.6445,240.1069 L275.3643,240.1069 L275.3643,242.2651 L270.0933,242.2651 L270.0933,244.938 L274.8662,244.938 L274.8662,247.0962 L270.0933,247.0962 L270.0933,250.3418 L275.3643,250.3418 Z " fill="#000000"/><text fill="#000000" font-family="sans-serif" font-size="14" lengthAdjust="spacing" textLength="79" x="292.25" y="251.291">OutputFiles</text><line style="stroke:#181818;stroke-width:0.5;" x1="224.5" x2="406.5" y1="262" y2="262"/><ellipse cx="234.5" cy="275.7441" fill="#000000" rx="3" ry="3" style="stroke:#000000;stroke-width:1.0;"/><text fill="#000000" font-family="sans-serif" font-size="14" lengthAdjust="spacing" textLength="52" x="243.5" y="279.5352">id: ULID</text><line style="stroke:#181818;stroke-width:1.0;" x1="224.5" x2="406.5" y1="286.4883" y2="286.4883"/><ellipse cx="234.5" cy="300.2324" fill="#000000" rx="3" ry="3" style="stroke:#000000;stroke-width:1.0;"/><text fill="#000000" font-family="sans-serif" font-size="14" lengthAdjust="spacing" textLength="116" x="243.5" y="304.0234">job_id: ULID &#171;FK&#187;</text><ellipse cx="234.5" cy="316.7207" fill="#000000" rx="3" ry="3" style="stroke:#000000;stroke-width:1.0;"/><text fill="#000000" font-family="sans-serif" font-size="14" lengthAdjust="spacing" textLength="158" x="243.5" y="320.5117">input_file_id: ULID &#171;FK&#187;</text><ellipse cx="234.5" cy="333.209" fill="#000000" rx="3" ry="3" style="stroke:#000000;stroke-width:1.0;"/><text fill="#000000" font-family="sans-serif" font-size="14" lengthAdjust="spacing" textLength="99" x="243.5" y="337">file_key: string</text><ellipse cx="234.5" cy="349.6973" fill="#000000" rx="3" ry="3" style="stroke:#000000;stroke-width:1.0;"/><text fill="#000000" font-family="sans-serif" font-size="14" lengthAdjust="spacing" textLength="114" x="243.5" y="353.4883">file_name: string</text><ellipse cx="234.5" cy="366.1855" fill="#000000" rx="3" ry="3" style="stroke:#000000;stroke-width:1.0;"/><text fill="#000000" font-family="sans-serif" font-size="14" lengthAdjust="spacing" textLength="136" x="243.5" y="369.9766">content_type: string</text><ellipse cx="234.5" cy="382.6738" fill="#000000" rx="3" ry="3" style="stroke:#000000;stroke-width:1.0;"/><text fill="#000000" font-family="sans-serif" font-size="14" lengthAdjust="spacing" textLength="89" x="243.5" y="386.4648">size: number</text><ellipse cx="234.5" cy="399.1621" fill="#000000" rx="3" ry="3" style="stroke:#000000;stroke-width:1.0;"/><text fill="#000000" font-family="sans-serif" font-size="14" lengthAdjust="spacing" textLength="100" x="243.5" y="402.9531">width: number</text><ellipse cx="234.5" cy="415.6504" fill="#000000" rx="3" ry="3" style="stroke:#000000;stroke-width:1.0;"/><text fill="#000000" font-family="sans-serif" font-size="14" lengthAdjust="spacing" textLength="106" x="243.5" y="419.4414">height: number</text><ellipse cx="234.5" cy="432.1387" fill="#000000" rx="3" ry="3" style="stroke:#000000;stroke-width:1.0;"/><text fill="#000000" font-family="sans-serif" font-size="14" lengthAdjust="spacing" textLength="139" x="243.5" y="435.9297">created_at: datetime</text><ellipse cx="234.5" cy="448.627" fill="#000000" rx="3" ry="3" style="stroke:#000000;stroke-width:1.0;"/><text fill="#000000" font-family="sans-serif" font-size="14" lengthAdjust="spacing" textLength="145" x="243.5" y="452.418">updated_at: datetime</text><text fill="#000000" font-family="sans-serif" font-size="14" lengthAdjust="spacing" textLength="139" x="243.5" y="468.9063">deleted_at: datetime</text></g><!--class ExtractedTexts--><g id="elem_ExtractedTexts"><rect codeLine="57" fill="#F1F1F1" height="245.8594" id="ExtractedTexts" rx="2.5" ry="2.5" style="stroke:#181818;stroke-width:0.5;" width="194" x="218.5" y="536"/><ellipse cx="260.05" cy="552" fill="#ADD1B2" rx="11" ry="11" style="stroke:#181818;stroke-width:1.0;"/><path d="M263.6643,558.5 L255.9445,558.5 L255.9445,546.1069 L263.6643,546.1069 L263.6643,548.2651 L258.3933,548.2651 L258.3933,550.938 L263.1662,550.938 L263.1662,553.0962 L258.3933,553.0962 L258.3933,556.3418 L263.6643,556.3418 Z " fill="#000000"/><text fill="#000000" font-family="sans-serif" font-size="14" lengthAdjust="spacing" textLength="103" x="279.95" y="557.291">ExtractedTexts</text><line style="stroke:#181818;stroke-width:0.5;" x1="219.5" x2="411.5" y1="568" y2="568"/><ellipse cx="229.5" cy="581.7441" fill="#000000" rx="3" ry="3" style="stroke:#000000;stroke-width:1.0;"/><text fill="#000000" font-family="sans-serif" font-size="14" lengthAdjust="spacing" textLength="52" x="238.5" y="585.5352">id: ULID</text><line style="stroke:#181818;stroke-width:1.0;" x1="219.5" x2="411.5" y1="592.4883" y2="592.4883"/><ellipse cx="229.5" cy="606.2324" fill="#000000" rx="3" ry="3" style="stroke:#000000;stroke-width:1.0;"/><text fill="#000000" font-family="sans-serif" font-size="14" lengthAdjust="spacing" textLength="116" x="238.5" y="610.0234">job_id: ULID &#171;FK&#187;</text><ellipse cx="229.5" cy="622.7207" fill="#000000" rx="3" ry="3" style="stroke:#000000;stroke-width:1.0;"/><text fill="#000000" font-family="sans-serif" font-size="14" lengthAdjust="spacing" textLength="158" x="238.5" y="626.5117">input_file_id: ULID &#171;FK&#187;</text><ellipse cx="229.5" cy="639.209" fill="#000000" rx="3" ry="3" style="stroke:#000000;stroke-width:1.0;"/><text fill="#000000" font-family="sans-serif" font-size="14" lengthAdjust="spacing" textLength="168" x="238.5" y="643">output_file_id: ULID &#171;FK&#187;</text><ellipse cx="229.5" cy="655.6973" fill="#000000" rx="3" ry="3" style="stroke:#000000;stroke-width:1.0;"/><text fill="#000000" font-family="sans-serif" font-size="14" lengthAdjust="spacing" textLength="75" x="238.5" y="659.4883">text: string</text><ellipse cx="229.5" cy="672.1855" fill="#000000" rx="3" ry="3" style="stroke:#000000;stroke-width:1.0;"/><text fill="#000000" font-family="sans-serif" font-size="14" lengthAdjust="spacing" textLength="85" x="238.5" y="675.9766">top: number</text><ellipse cx="229.5" cy="688.6738" fill="#000000" rx="3" ry="3" style="stroke:#000000;stroke-width:1.0;"/><text fill="#000000" font-family="sans-serif" font-size="14" lengthAdjust="spacing" textLength="112" x="238.5" y="692.4648">bottom: number</text><ellipse cx="229.5" cy="705.1621" fill="#000000" rx="3" ry="3" style="stroke:#000000;stroke-width:1.0;"/><text fill="#000000" font-family="sans-serif" font-size="14" lengthAdjust="spacing" textLength="84" x="238.5" y="708.9531">left: number</text><ellipse cx="229.5" cy="721.6504" fill="#000000" rx="3" ry="3" style="stroke:#000000;stroke-width:1.0;"/><text fill="#000000" font-family="sans-serif" font-size="14" lengthAdjust="spacing" textLength="95" x="238.5" y="725.4414">right: number</text><ellipse cx="229.5" cy="738.1387" fill="#000000" rx="3" ry="3" style="stroke:#000000;stroke-width:1.0;"/><text fill="#000000" font-family="sans-serif" font-size="14" lengthAdjust="spacing" textLength="139" x="238.5" y="741.9297">created_at: datetime</text><ellipse cx="229.5" cy="754.627" fill="#000000" rx="3" ry="3" style="stroke:#000000;stroke-width:1.0;"/><text fill="#000000" font-family="sans-serif" font-size="14" lengthAdjust="spacing" textLength="145" x="238.5" y="758.418">updated_at: datetime</text><text fill="#000000" font-family="sans-serif" font-size="14" lengthAdjust="spacing" textLength="139" x="238.5" y="774.9063">deleted_at: datetime</text></g><!--link Jobs to InputFiles--><g id="link_Jobs_InputFiles"><path codeLine="73" d="M99.5,179.34 C99.5,192.82 99.5,206.95 99.5,221.07 " fill="none" id="Jobs-InputFiles" style="stroke:#181818;stroke-width:1.0;stroke-dasharray:7.0,7.0;"/><line style="stroke:#181818;stroke-width:1.0;" x1="95.5" x2="103.5" y1="175.4" y2="175.4"/><line style="stroke:#181818;stroke-width:1.0;" x1="95.5" x2="103.5" y1="178.4" y2="178.4"/><line style="stroke:#181818;stroke-width:1.0;" x1="99.5" x2="99.5" y1="179.4" y2="171.4"/><line style="stroke:#181818;stroke-width:1.0;" x1="99.5" x2="105.5" y1="220.86" y2="228.86"/><line style="stroke:#181818;stroke-width:1.0;" x1="99.5" x2="93.5" y1="220.86" y2="228.86"/><line style="stroke:#181818;stroke-width:1.0;" x1="99.5" x2="99.5" y1="220.86" y2="228.86"/><ellipse cx="99.5" cy="214.86" fill="none" rx="4" ry="4" style="stroke:#181818;stroke-width:1.0;"/></g><!--link InputFiles to OutputFiles--><g id="link_InputFiles_OutputFiles"><path codeLine="74" d="M196.93,353 C202.86,353 208.8,353 214.73,353 " fill="none" id="InputFiles-OutputFiles" style="stroke:#181818;stroke-width:1.0;stroke-dasharray:7.0,7.0;"/><line style="stroke:#181818;stroke-width:1.0;" x1="193.09" x2="193.09" y1="357" y2="349"/><line style="stroke:#181818;stroke-width:1.0;" x1="196.09" x2="196.09" y1="357" y2="349"/><line style="stroke:#181818;stroke-width:1.0;" x1="197.09" x2="189.09" y1="353" y2="353"/><line style="stroke:#181818;stroke-width:1.0;" x1="214.43" x2="222.43" y1="353" y2="347"/><line style="stroke:#181818;stroke-width:1.0;" x1="214.43" x2="222.43" y1="353" y2="359"/><line style="stroke:#181818;stroke-width:1.0;" x1="214.43" x2="222.43" y1="353" y2="353"/><ellipse cx="208.43" cy="353" fill="none" rx="4" ry="4" style="stroke:#181818;stroke-width:1.0;"/></g><!--link OutputFiles to ExtractedTexts--><g id="link_OutputFiles_ExtractedTexts"><path codeLine="75" d="M315.5,485.12 C315.5,499.09 315.5,513.29 315.5,527.26 " fill="none" id="OutputFiles-ExtractedTexts" style="stroke:#181818;stroke-width:1.0;stroke-dasharray:7.0,7.0;"/><line style="stroke:#181818;stroke-width:1.0;" x1="311.5" x2="319.5" y1="481.33" y2="481.33"/><line style="stroke:#181818;stroke-width:1.0;" x1="311.5" x2="319.5" y1="484.33" y2="484.33"/><line style="stroke:#181818;stroke-width:1.0;" x1="315.5" x2="315.5" y1="485.33" y2="477.33"/><line style="stroke:#181818;stroke-width:1.0;" x1="315.5" x2="323.5" y1="526.92" y2="534.92"/><line style="stroke:#181818;stroke-width:1.0;" x1="315.5" x2="307.5" y1="526.92" y2="534.92"/><line style="stroke:#181818;stroke-width:1.0;" x1="315.5" x2="315.5" y1="526.92" y2="534.92"/></g><!--SRC=[pPJ1JiCm38RlUGgV9sqFK4qxmQG14WVWNAMDsmNQf4eTiRBnxhYfnXgs7K2RnCtz_YIsVoT5uskuizaJIV8jR0M0yyPeKtBK-Zn7LAWuBgIkEFWK0lijAzDuMZBwrKRIrFNPXlKJq2g1buVL3NzCfu4OMMC2BRdXe0bOfqjjP9KMV4pwXbsajY5xSkWWqDoX95Iff0GKHwHh389lr2a1G665HyAXvEzkpnV-QhDqJs4-Nzul5e6VB3l0erPpQuWJfjGriT3g3mPiUuOkW7UjQ1sHDUfoJH7QU_DZLDTnwD7JdotIVO73VF-NWnTtwNP3JkQyu1atT76ZR9Z1UPquQUGAsIRgDxD4jevGXKNiYRkYI-7FiDlDPdOxUd9YzFfwqR4wkcvYVFLwNR4U6os-0000]--></g></svg>