<?xml version="1.0" encoding="us-ascii" standalone="no"?><svg xmlns="http://www.w3.org/2000/svg" xmlns:xlink="http://www.w3.org/1999/xlink" contentStyleType="text/css" height="449px" preserveAspectRatio="none" style="width:407px;height:449px;background:#FFFFFF;" version="1.1" viewBox="0 0 407 449" width="407px" zoomAndPan="magnify"><defs/><g><!--class Status--><g id="elem_Status"><rect codeLine="2" fill="#F1F1F1" height="97.4648" id="Status" rx="2.5" ry="2.5" style="stroke:#181818;stroke-width:0.5;" width="84" x="7" y="23.5"/><ellipse cx="26.5" cy="39.5" fill="#EB937F" rx="11" ry="11" style="stroke:#181818;stroke-width:1.0;"/><path d="M30.1143,46 L22.3945,46 L22.3945,33.6069 L30.1143,33.6069 L30.1143,35.7651 L24.8433,35.7651 L24.8433,38.438 L29.6162,38.438 L29.6162,40.5962 L24.8433,40.5962 L24.8433,43.8418 L30.1143,43.8418 Z " fill="#000000"/><text fill="#000000" font-family="sans-serif" font-size="14" lengthAdjust="spacing" textLength="42" x="41.5" y="44.791">Status</text><line style="stroke:#181818;stroke-width:0.5;" x1="8" x2="90" y1="55.5" y2="55.5"/><text fill="#000000" font-family="sans-serif" font-size="14" lengthAdjust="spacing" textLength="55" x="13" y="73.0352">running</text><text fill="#000000" font-family="sans-serif" font-size="14" lengthAdjust="spacing" textLength="72" x="13" y="89.5234">succeeded</text><text fill="#000000" font-family="sans-serif" font-size="14" lengthAdjust="spacing" textLength="38" x="13" y="106.0117">failed</text><line style="stroke:#181818;stroke-width:0.5;" x1="8" x2="90" y1="112.9648" y2="112.9648"/></g><!--class Jobs--><g id="elem_Jobs"><rect codeLine="8" fill="#F1F1F1" height="130.4414" id="Jobs" rx="2.5" ry="2.5" style="stroke:#181818;stroke-width:0.5;" width="171" x="126.5" y="7"/><ellipse cx="193.25" cy="23" fill="#ADD1B2" rx="11" ry="11" style="stroke:#181818;stroke-width:1.0;"/><path d="M196.8643,29.5 L189.1445,29.5 L189.1445,17.1069 L196.8643,17.1069 L196.8643,19.2651 L191.5933,19.2651 L191.5933,21.938 L196.3662,21.938 L196.3662,24.0962 L191.5933,24.0962 L191.5933,27.3418 L196.8643,27.3418 Z " fill="#000000"/><text fill="#000000" font-family="sans-serif" font-size="14" lengthAdjust="spacing" textLength="29" x="213.75" y="28.291">Jobs</text><line style="stroke:#181818;stroke-width:0.5;" x1="127.5" x2="296.5" y1="39" y2="39"/><ellipse cx="137.5" cy="52.7441" fill="#000000" rx="3" ry="3" style="stroke:#000000;stroke-width:1.0;"/><text fill="#000000" font-family="sans-serif" font-size="14" lengthAdjust="spacing" textLength="52" x="146.5" y="56.5352">id: ULID</text><line style="stroke:#181818;stroke-width:1.0;" x1="127.5" x2="296.5" y1="63.4883" y2="63.4883"/><ellipse cx="137.5" cy="77.2324" fill="#000000" rx="3" ry="3" style="stroke:#000000;stroke-width:1.0;"/><text fill="#000000" font-family="sans-serif" font-size="14" lengthAdjust="spacing" textLength="91" x="146.5" y="81.0234">status: Status</text><ellipse cx="137.5" cy="93.7207" fill="#000000" rx="3" ry="3" style="stroke:#000000;stroke-width:1.0;"/><text fill="#000000" font-family="sans-serif" font-size="14" lengthAdjust="spacing" textLength="139" x="146.5" y="97.5117">created_at: datetime</text><ellipse cx="137.5" cy="110.209" fill="#000000" rx="3" ry="3" style="stroke:#000000;stroke-width:1.0;"/><text fill="#000000" font-family="sans-serif" font-size="14" lengthAdjust="spacing" textLength="145" x="146.5" y="114">updated_at: datetime</text><text fill="#000000" font-family="sans-serif" font-size="14" lengthAdjust="spacing" textLength="139" x="146.5" y="130.4883">deleted_at: datetime</text></g><!--class Files--><g id="elem_Files"><rect codeLine="17" fill="#F1F1F1" height="245.8594" id="Files" rx="2.5" ry="2.5" style="stroke:#181818;stroke-width:0.5;" width="171" x="23.5" y="197"/><ellipse cx="89.25" cy="213" fill="#ADD1B2" rx="11" ry="11" style="stroke:#181818;stroke-width:1.0;"/><path d="M92.8643,219.5 L85.1445,219.5 L85.1445,207.1069 L92.8643,207.1069 L92.8643,209.2651 L87.5933,209.2651 L87.5933,211.938 L92.3662,211.938 L92.3662,214.0962 L87.5933,214.0962 L87.5933,217.3418 L92.8643,217.3418 Z " fill="#000000"/><text fill="#000000" font-family="sans-serif" font-size="14" lengthAdjust="spacing" textLength="31" x="109.75" y="218.291">Files</text><line style="stroke:#181818;stroke-width:0.5;" x1="24.5" x2="193.5" y1="229" y2="229"/><ellipse cx="34.5" cy="242.7441" fill="#000000" rx="3" ry="3" style="stroke:#000000;stroke-width:1.0;"/><text fill="#000000" font-family="sans-serif" font-size="14" lengthAdjust="spacing" textLength="52" x="43.5" y="246.5352">id: ULID</text><line style="stroke:#181818;stroke-width:1.0;" x1="24.5" x2="193.5" y1="253.4883" y2="253.4883"/><ellipse cx="34.5" cy="267.2324" fill="#000000" rx="3" ry="3" style="stroke:#000000;stroke-width:1.0;"/><text fill="#000000" font-family="sans-serif" font-size="14" lengthAdjust="spacing" textLength="116" x="43.5" y="271.0234">job_id: ULID &#171;FK&#187;</text><ellipse cx="34.5" cy="283.7207" fill="#000000" rx="3" ry="3" style="stroke:#000000;stroke-width:1.0;"/><text fill="#000000" font-family="sans-serif" font-size="14" lengthAdjust="spacing" textLength="126" x="43.5" y="287.5117">is_output: number</text><ellipse cx="34.5" cy="300.209" fill="#000000" rx="3" ry="3" style="stroke:#000000;stroke-width:1.0;"/><text fill="#000000" font-family="sans-serif" font-size="14" lengthAdjust="spacing" textLength="99" x="43.5" y="304">file_key: string</text><ellipse cx="34.5" cy="316.6973" fill="#000000" rx="3" ry="3" style="stroke:#000000;stroke-width:1.0;"/><text fill="#000000" font-family="sans-serif" font-size="14" lengthAdjust="spacing" textLength="114" x="43.5" y="320.4883">file_name: string</text><ellipse cx="34.5" cy="333.1855" fill="#000000" rx="3" ry="3" style="stroke:#000000;stroke-width:1.0;"/><text fill="#000000" font-family="sans-serif" font-size="14" lengthAdjust="spacing" textLength="136" x="43.5" y="336.9766">content_type: string</text><ellipse cx="34.5" cy="349.6738" fill="#000000" rx="3" ry="3" style="stroke:#000000;stroke-width:1.0;"/><text fill="#000000" font-family="sans-serif" font-size="14" lengthAdjust="spacing" textLength="89" x="43.5" y="353.4648">size: number</text><ellipse cx="34.5" cy="366.1621" fill="#000000" rx="3" ry="3" style="stroke:#000000;stroke-width:1.0;"/><text fill="#000000" font-family="sans-serif" font-size="14" lengthAdjust="spacing" textLength="100" x="43.5" y="369.9531">width: number</text><ellipse cx="34.5" cy="382.6504" fill="#000000" rx="3" ry="3" style="stroke:#000000;stroke-width:1.0;"/><text fill="#000000" font-family="sans-serif" font-size="14" lengthAdjust="spacing" textLength="106" x="43.5" y="386.4414">height: number</text><ellipse cx="34.5" cy="399.1387" fill="#000000" rx="3" ry="3" style="stroke:#000000;stroke-width:1.0;"/><text fill="#000000" font-family="sans-serif" font-size="14" lengthAdjust="spacing" textLength="139" x="43.5" y="402.9297">created_at: datetime</text><ellipse cx="34.5" cy="415.627" fill="#000000" rx="3" ry="3" style="stroke:#000000;stroke-width:1.0;"/><text fill="#000000" font-family="sans-serif" font-size="14" lengthAdjust="spacing" textLength="145" x="43.5" y="419.418">updated_at: datetime</text><text fill="#000000" font-family="sans-serif" font-size="14" lengthAdjust="spacing" textLength="139" x="43.5" y="435.9063">deleted_at: datetime</text></g><!--class ExtractedTexts--><g id="elem_ExtractedTexts"><rect codeLine="33" fill="#F1F1F1" height="212.8828" id="ExtractedTexts" rx="2.5" ry="2.5" style="stroke:#181818;stroke-width:0.5;" width="171" x="229.5" y="213.5"/><ellipse cx="260.7" cy="229.5" fill="#ADD1B2" rx="11" ry="11" style="stroke:#181818;stroke-width:1.0;"/><path d="M264.3143,236 L256.5945,236 L256.5945,223.6069 L264.3143,223.6069 L264.3143,225.7651 L259.0433,225.7651 L259.0433,228.438 L263.8162,228.438 L263.8162,230.5962 L259.0433,230.5962 L259.0433,233.8418 L264.3143,233.8418 Z " fill="#000000"/><text fill="#000000" font-family="sans-serif" font-size="14" lengthAdjust="spacing" textLength="103" x="278.3" y="234.791">ExtractedTexts</text><line style="stroke:#181818;stroke-width:0.5;" x1="230.5" x2="399.5" y1="245.5" y2="245.5"/><ellipse cx="240.5" cy="259.2441" fill="#000000" rx="3" ry="3" style="stroke:#000000;stroke-width:1.0;"/><text fill="#000000" font-family="sans-serif" font-size="14" lengthAdjust="spacing" textLength="52" x="249.5" y="263.0352">id: ULID</text><line style="stroke:#181818;stroke-width:1.0;" x1="230.5" x2="399.5" y1="269.9883" y2="269.9883"/><ellipse cx="240.5" cy="283.7324" fill="#000000" rx="3" ry="3" style="stroke:#000000;stroke-width:1.0;"/><text fill="#000000" font-family="sans-serif" font-size="14" lengthAdjust="spacing" textLength="116" x="249.5" y="287.5234">job_id: ULID &#171;FK&#187;</text><ellipse cx="240.5" cy="300.2207" fill="#000000" rx="3" ry="3" style="stroke:#000000;stroke-width:1.0;"/><text fill="#000000" font-family="sans-serif" font-size="14" lengthAdjust="spacing" textLength="75" x="249.5" y="304.0117">text: string</text><ellipse cx="240.5" cy="316.709" fill="#000000" rx="3" ry="3" style="stroke:#000000;stroke-width:1.0;"/><text fill="#000000" font-family="sans-serif" font-size="14" lengthAdjust="spacing" textLength="85" x="249.5" y="320.5">top: number</text><ellipse cx="240.5" cy="333.1973" fill="#000000" rx="3" ry="3" style="stroke:#000000;stroke-width:1.0;"/><text fill="#000000" font-family="sans-serif" font-size="14" lengthAdjust="spacing" textLength="112" x="249.5" y="336.9883">bottom: number</text><ellipse cx="240.5" cy="349.6855" fill="#000000" rx="3" ry="3" style="stroke:#000000;stroke-width:1.0;"/><text fill="#000000" font-family="sans-serif" font-size="14" lengthAdjust="spacing" textLength="84" x="249.5" y="353.4766">left: number</text><ellipse cx="240.5" cy="366.1738" fill="#000000" rx="3" ry="3" style="stroke:#000000;stroke-width:1.0;"/><text fill="#000000" font-family="sans-serif" font-size="14" lengthAdjust="spacing" textLength="95" x="249.5" y="369.9648">right: number</text><ellipse cx="240.5" cy="382.6621" fill="#000000" rx="3" ry="3" style="stroke:#000000;stroke-width:1.0;"/><text fill="#000000" font-family="sans-serif" font-size="14" lengthAdjust="spacing" textLength="139" x="249.5" y="386.4531">created_at: datetime</text><ellipse cx="240.5" cy="399.1504" fill="#000000" rx="3" ry="3" style="stroke:#000000;stroke-width:1.0;"/><text fill="#000000" font-family="sans-serif" font-size="14" lengthAdjust="spacing" textLength="145" x="249.5" y="402.9414">updated_at: datetime</text><text fill="#000000" font-family="sans-serif" font-size="14" lengthAdjust="spacing" textLength="139" x="249.5" y="419.4297">deleted_at: datetime</text></g><!--link Jobs to ExtractedTexts--><g id="link_Jobs_ExtractedTexts"><path codeLine="47" d="M242.52,145.89 C250.25,164.36 258.75,184.65 267.12,204.64 " fill="none" id="Jobs-ExtractedTexts" style="stroke:#181818;stroke-width:1.0;stroke-dasharray:7.0,7.0;"/><line style="stroke:#181818;stroke-width:1.0;" x1="237.3648" x2="244.7443" y1="143.9443" y2="140.8552"/><line style="stroke:#181818;stroke-width:1.0;" x1="238.5232" x2="245.9027" y1="146.7116" y2="143.6225"/><line style="stroke:#181818;stroke-width:1.0;" x1="242.5991" x2="239.51" y1="146.0895" y2="138.71"/><line style="stroke:#181818;stroke-width:1.0;" x1="267.026" x2="275.6462" y1="204.3983" y2="209.467"/><line style="stroke:#181818;stroke-width:1.0;" x1="267.026" x2="264.5738" y1="204.3983" y2="214.093"/><line style="stroke:#181818;stroke-width:1.0;" x1="267.026" x2="270.11" y1="204.3983" y2="211.78"/><ellipse cx="264.713" cy="198.8621" fill="none" rx="4" ry="4" style="stroke:#181818;stroke-width:1.0;"/></g><!--link Jobs to Files--><g id="link_Jobs_Files"><path codeLine="48" d="M181.4,146.08 C175.79,159.49 169.77,173.86 163.69,188.38 " fill="none" id="Jobs-Files" style="stroke:#181818;stroke-width:1.0;stroke-dasharray:7.0,7.0;"/><line style="stroke:#181818;stroke-width:1.0;" x1="179.2557" x2="186.6352" y1="140.8552" y2="143.9443"/><line style="stroke:#181818;stroke-width:1.0;" x1="178.0973" x2="185.4768" y1="143.6225" y2="146.7116"/><line style="stroke:#181818;stroke-width:1.0;" x1="181.4009" x2="184.49" y1="146.0895" y2="138.71"/><line style="stroke:#181818;stroke-width:1.0;" x1="163.7962" x2="166.2324" y1="188.1534" y2="197.8521"/><line style="stroke:#181818;stroke-width:1.0;" x1="163.7962" x2="155.1676" y1="188.1534" y2="193.2079"/><line style="stroke:#181818;stroke-width:1.0;" x1="163.7962" x2="160.7" y1="188.1534" y2="195.53"/><ellipse cx="166.1183" cy="182.621" fill="none" rx="4" ry="4" style="stroke:#181818;stroke-width:1.0;"/></g><!--SRC=[jLBBJiCm4BpdA_QCr7v0LFLKAl6u5SwMOsyQGs97zbfjQFbtLauHMXu79BYDPzRZcPNHvm5sf2adE5K0CNll_9vHoiOWMhICM-rw1gzLXPuSJN0Rcdd-2fojuV7-PiE7nQ8mgTZL5zj2cOYQq2fDDLX6v0OiGXxjTmA0nHw_21y1jXpevmHFeL7lBAnMsxlrUfvCAcGQCtjoxmPZOLlsKiyurPmypkKlfDS32jO4Jvn0qJHA8RaN5AO7PwaJJ8TktycN_tmjrqUAsl300nxfz_iXlYLgKHX5u2OGXK5GFRQoLFp7ckNVdS_BPJXzwYgayZkgDm00]--></g></svg>