<?xml version="1.0" encoding="us-ascii" standalone="no"?><svg xmlns="http://www.w3.org/2000/svg" xmlns:xlink="http://www.w3.org/1999/xlink" contentStyleType="text/css" height="755px" preserveAspectRatio="none" style="width:423px;height:755px;background:#FFFFFF;" version="1.1" viewBox="0 0 423 755" width="423px" zoomAndPan="magnify"><defs/><g><!--class Status--><g id="elem_Status"><rect codeLine="2" fill="#F1F1F1" height="97.4648" id="Status" rx="2.5" ry="2.5" style="stroke:#181818;stroke-width:0.5;" width="84" x="7" y="23.5"/><ellipse cx="26.5" cy="39.5" fill="#EB937F" rx="11" ry="11" style="stroke:#181818;stroke-width:1.0;"/><path d="M30.1143,46 L22.3945,46 L22.3945,33.6069 L30.1143,33.6069 L30.1143,35.7651 L24.8433,35.7651 L24.8433,38.438 L29.6162,38.438 L29.6162,40.5962 L24.8433,40.5962 L24.8433,43.8418 L30.1143,43.8418 Z " fill="#000000"/><text fill="#000000" font-family="sans-serif" font-size="14" lengthAdjust="spacing" textLength="42" x="41.5" y="44.791">Status</text><line style="stroke:#181818;stroke-width:0.5;" x1="8" x2="90" y1="55.5" y2="55.5"/><text fill="#000000" font-family="sans-serif" font-size="14" lengthAdjust="spacing" textLength="55" x="13" y="73.0352">running</text><text fill="#000000" font-family="sans-serif" font-size="14" lengthAdjust="spacing" textLength="72" x="13" y="89.5234">succeeded</text><text fill="#000000" font-family="sans-serif" font-size="14" lengthAdjust="spacing" textLength="38" x="13" y="106.0117">failed</text><line style="stroke:#181818;stroke-width:0.5;" x1="8" x2="90" y1="112.9648" y2="112.9648"/></g><!--class Jobs--><g id="elem_Jobs"><rect codeLine="8" fill="#F1F1F1" height="130.4414" id="Jobs" rx="2.5" ry="2.5" style="stroke:#181818;stroke-width:0.5;" width="171" x="126.5" y="7"/><ellipse cx="193.25" cy="23" fill="#ADD1B2" rx="11" ry="11" style="stroke:#181818;stroke-width:1.0;"/><path d="M196.8643,29.5 L189.1445,29.5 L189.1445,17.1069 L196.8643,17.1069 L196.8643,19.2651 L191.5933,19.2651 L191.5933,21.938 L196.3662,21.938 L196.3662,24.0962 L191.5933,24.0962 L191.5933,27.3418 L196.8643,27.3418 Z " fill="#000000"/><text fill="#000000" font-family="sans-serif" font-size="14" lengthAdjust="spacing" textLength="29" x="213.75" y="28.291">Jobs</text><line style="stroke:#181818;stroke-width:0.5;" x1="127.5" x2="296.5" y1="39" y2="39"/><ellipse cx="137.5" cy="52.7441" fill="#000000" rx="3" ry="3" style="stroke:#000000;stroke-width:1.0;"/><text fill="#000000" font-family="sans-serif" font-size="14" lengthAdjust="spacing" textLength="52" x="146.5" y="56.5352">id: ULID</text><line style="stroke:#181818;stroke-width:1.0;" x1="127.5" x2="296.5" y1="63.4883" y2="63.4883"/><ellipse cx="137.5" cy="77.2324" fill="#000000" rx="3" ry="3" style="stroke:#000000;stroke-width:1.0;"/><text fill="#000000" font-family="sans-serif" font-size="14" lengthAdjust="spacing" textLength="91" x="146.5" y="81.0234">status: Status</text><ellipse cx="137.5" cy="93.7207" fill="#000000" rx="3" ry="3" style="stroke:#000000;stroke-width:1.0;"/><text fill="#000000" font-family="sans-serif" font-size="14" lengthAdjust="spacing" textLength="139" x="146.5" y="97.5117">created_at: datetime</text><ellipse cx="137.5" cy="110.209" fill="#000000" rx="3" ry="3" style="stroke:#000000;stroke-width:1.0;"/><text fill="#000000" font-family="sans-serif" font-size="14" lengthAdjust="spacing" textLength="145" x="146.5" y="114">updated_at: datetime</text><text fill="#000000" font-family="sans-serif" font-size="14" lengthAdjust="spacing" textLength="139" x="146.5" y="130.4883">deleted_at: datetime</text></g><!--class InputFiles--><g id="elem_InputFiles"><rect codeLine="17" fill="#F1F1F1" height="229.3711" id="InputFiles" rx="2.5" ry="2.5" style="stroke:#181818;stroke-width:0.5;" width="171" x="20.5" y="205.5"/><ellipse cx="68.25" cy="221.5" fill="#ADD1B2" rx="11" ry="11" style="stroke:#181818;stroke-width:1.0;"/><path d="M71.8643,228 L64.1445,228 L64.1445,215.6069 L71.8643,215.6069 L71.8643,217.7651 L66.5933,217.7651 L66.5933,220.438 L71.3662,220.438 L71.3662,222.5962 L66.5933,222.5962 L66.5933,225.8418 L71.8643,225.8418 Z " fill="#000000"/><text fill="#000000" font-family="sans-serif" font-size="14" lengthAdjust="spacing" textLength="67" x="88.75" y="226.791">InputFiles</text><line style="stroke:#181818;stroke-width:0.5;" x1="21.5" x2="190.5" y1="237.5" y2="237.5"/><ellipse cx="31.5" cy="251.2441" fill="#000000" rx="3" ry="3" style="stroke:#000000;stroke-width:1.0;"/><text fill="#000000" font-family="sans-serif" font-size="14" lengthAdjust="spacing" textLength="52" x="40.5" y="255.0352">id: ULID</text><line style="stroke:#181818;stroke-width:1.0;" x1="21.5" x2="190.5" y1="261.9883" y2="261.9883"/><ellipse cx="31.5" cy="275.7324" fill="#000000" rx="3" ry="3" style="stroke:#000000;stroke-width:1.0;"/><text fill="#000000" font-family="sans-serif" font-size="14" lengthAdjust="spacing" textLength="116" x="40.5" y="279.5234">job_id: ULID &#171;FK&#187;</text><ellipse cx="31.5" cy="292.2207" fill="#000000" rx="3" ry="3" style="stroke:#000000;stroke-width:1.0;"/><text fill="#000000" font-family="sans-serif" font-size="14" lengthAdjust="spacing" textLength="99" x="40.5" y="296.0117">file_key: string</text><ellipse cx="31.5" cy="308.709" fill="#000000" rx="3" ry="3" style="stroke:#000000;stroke-width:1.0;"/><text fill="#000000" font-family="sans-serif" font-size="14" lengthAdjust="spacing" textLength="114" x="40.5" y="312.5">file_name: string</text><ellipse cx="31.5" cy="325.1973" fill="#000000" rx="3" ry="3" style="stroke:#000000;stroke-width:1.0;"/><text fill="#000000" font-family="sans-serif" font-size="14" lengthAdjust="spacing" textLength="136" x="40.5" y="328.9883">content_type: string</text><ellipse cx="31.5" cy="341.6855" fill="#000000" rx="3" ry="3" style="stroke:#000000;stroke-width:1.0;"/><text fill="#000000" font-family="sans-serif" font-size="14" lengthAdjust="spacing" textLength="89" x="40.5" y="345.4766">size: number</text><ellipse cx="31.5" cy="358.1738" fill="#000000" rx="3" ry="3" style="stroke:#000000;stroke-width:1.0;"/><text fill="#000000" font-family="sans-serif" font-size="14" lengthAdjust="spacing" textLength="100" x="40.5" y="361.9648">width: number</text><ellipse cx="31.5" cy="374.6621" fill="#000000" rx="3" ry="3" style="stroke:#000000;stroke-width:1.0;"/><text fill="#000000" font-family="sans-serif" font-size="14" lengthAdjust="spacing" textLength="106" x="40.5" y="378.4531">height: number</text><ellipse cx="31.5" cy="391.1504" fill="#000000" rx="3" ry="3" style="stroke:#000000;stroke-width:1.0;"/><text fill="#000000" font-family="sans-serif" font-size="14" lengthAdjust="spacing" textLength="139" x="40.5" y="394.9414">created_at: datetime</text><ellipse cx="31.5" cy="407.6387" fill="#000000" rx="3" ry="3" style="stroke:#000000;stroke-width:1.0;"/><text fill="#000000" font-family="sans-serif" font-size="14" lengthAdjust="spacing" textLength="145" x="40.5" y="411.4297">updated_at: datetime</text><text fill="#000000" font-family="sans-serif" font-size="14" lengthAdjust="spacing" textLength="139" x="40.5" y="427.918">deleted_at: datetime</text></g><!--class OutputFiles--><g id="elem_OutputFiles"><rect codeLine="32" fill="#F1F1F1" height="245.8594" id="OutputFiles" rx="2.5" ry="2.5" style="stroke:#181818;stroke-width:0.5;" width="184" x="227" y="197"/><ellipse cx="275.25" cy="213" fill="#ADD1B2" rx="11" ry="11" style="stroke:#181818;stroke-width:1.0;"/><path d="M278.8643,219.5 L271.1445,219.5 L271.1445,207.1069 L278.8643,207.1069 L278.8643,209.2651 L273.5933,209.2651 L273.5933,211.938 L278.3662,211.938 L278.3662,214.0962 L273.5933,214.0962 L273.5933,217.3418 L278.8643,217.3418 Z " fill="#000000"/><text fill="#000000" font-family="sans-serif" font-size="14" lengthAdjust="spacing" textLength="79" x="295.75" y="218.291">OutputFiles</text><line style="stroke:#181818;stroke-width:0.5;" x1="228" x2="410" y1="229" y2="229"/><ellipse cx="238" cy="242.7441" fill="#000000" rx="3" ry="3" style="stroke:#000000;stroke-width:1.0;"/><text fill="#000000" font-family="sans-serif" font-size="14" lengthAdjust="spacing" textLength="52" x="247" y="246.5352">id: ULID</text><line style="stroke:#181818;stroke-width:1.0;" x1="228" x2="410" y1="253.4883" y2="253.4883"/><ellipse cx="238" cy="267.2324" fill="#000000" rx="3" ry="3" style="stroke:#000000;stroke-width:1.0;"/><text fill="#000000" font-family="sans-serif" font-size="14" lengthAdjust="spacing" textLength="116" x="247" y="271.0234">job_id: ULID &#171;FK&#187;</text><ellipse cx="238" cy="283.7207" fill="#000000" rx="3" ry="3" style="stroke:#000000;stroke-width:1.0;"/><text fill="#000000" font-family="sans-serif" font-size="14" lengthAdjust="spacing" textLength="158" x="247" y="287.5117">input_file_id: ULID &#171;FK&#187;</text><ellipse cx="238" cy="300.209" fill="#000000" rx="3" ry="3" style="stroke:#000000;stroke-width:1.0;"/><text fill="#000000" font-family="sans-serif" font-size="14" lengthAdjust="spacing" textLength="99" x="247" y="304">file_key: string</text><ellipse cx="238" cy="316.6973" fill="#000000" rx="3" ry="3" style="stroke:#000000;stroke-width:1.0;"/><text fill="#000000" font-family="sans-serif" font-size="14" lengthAdjust="spacing" textLength="114" x="247" y="320.4883">file_name: string</text><ellipse cx="238" cy="333.1855" fill="#000000" rx="3" ry="3" style="stroke:#000000;stroke-width:1.0;"/><text fill="#000000" font-family="sans-serif" font-size="14" lengthAdjust="spacing" textLength="136" x="247" y="336.9766">content_type: string</text><ellipse cx="238" cy="349.6738" fill="#000000" rx="3" ry="3" style="stroke:#000000;stroke-width:1.0;"/><text fill="#000000" font-family="sans-serif" font-size="14" lengthAdjust="spacing" textLength="89" x="247" y="353.4648">size: number</text><ellipse cx="238" cy="366.1621" fill="#000000" rx="3" ry="3" style="stroke:#000000;stroke-width:1.0;"/><text fill="#000000" font-family="sans-serif" font-size="14" lengthAdjust="spacing" textLength="100" x="247" y="369.9531">width: number</text><ellipse cx="238" cy="382.6504" fill="#000000" rx="3" ry="3" style="stroke:#000000;stroke-width:1.0;"/><text fill="#000000" font-family="sans-serif" font-size="14" lengthAdjust="spacing" textLength="106" x="247" y="386.4414">height: number</text><ellipse cx="238" cy="399.1387" fill="#000000" rx="3" ry="3" style="stroke:#000000;stroke-width:1.0;"/><text fill="#000000" font-family="sans-serif" font-size="14" lengthAdjust="spacing" textLength="139" x="247" y="402.9297">created_at: datetime</text><ellipse cx="238" cy="415.627" fill="#000000" rx="3" ry="3" style="stroke:#000000;stroke-width:1.0;"/><text fill="#000000" font-family="sans-serif" font-size="14" lengthAdjust="spacing" textLength="145" x="247" y="419.418">updated_at: datetime</text><text fill="#000000" font-family="sans-serif" font-size="14" lengthAdjust="spacing" textLength="139" x="247" y="435.9063">deleted_at: datetime</text></g><!--class ExtractedTexts--><g id="elem_ExtractedTexts"><rect codeLine="48" fill="#F1F1F1" height="245.8594" id="ExtractedTexts" rx="2.5" ry="2.5" style="stroke:#181818;stroke-width:0.5;" width="194" x="222" y="503"/><ellipse cx="263.55" cy="519" fill="#ADD1B2" rx="11" ry="11" style="stroke:#181818;stroke-width:1.0;"/><path d="M267.1643,525.5 L259.4445,525.5 L259.4445,513.1069 L267.1643,513.1069 L267.1643,515.2651 L261.8933,515.2651 L261.8933,517.938 L266.6662,517.938 L266.6662,520.0962 L261.8933,520.0962 L261.8933,523.3418 L267.1643,523.3418 Z " fill="#000000"/><text fill="#000000" font-family="sans-serif" font-size="14" lengthAdjust="spacing" textLength="103" x="283.45" y="524.291">ExtractedTexts</text><line style="stroke:#181818;stroke-width:0.5;" x1="223" x2="415" y1="535" y2="535"/><ellipse cx="233" cy="548.7441" fill="#000000" rx="3" ry="3" style="stroke:#000000;stroke-width:1.0;"/><text fill="#000000" font-family="sans-serif" font-size="14" lengthAdjust="spacing" textLength="52" x="242" y="552.5352">id: ULID</text><line style="stroke:#181818;stroke-width:1.0;" x1="223" x2="415" y1="559.4883" y2="559.4883"/><ellipse cx="233" cy="573.2324" fill="#000000" rx="3" ry="3" style="stroke:#000000;stroke-width:1.0;"/><text fill="#000000" font-family="sans-serif" font-size="14" lengthAdjust="spacing" textLength="116" x="242" y="577.0234">job_id: ULID &#171;FK&#187;</text><ellipse cx="233" cy="589.7207" fill="#000000" rx="3" ry="3" style="stroke:#000000;stroke-width:1.0;"/><text fill="#000000" font-family="sans-serif" font-size="14" lengthAdjust="spacing" textLength="158" x="242" y="593.5117">input_file_id: ULID &#171;FK&#187;</text><ellipse cx="233" cy="606.209" fill="#000000" rx="3" ry="3" style="stroke:#000000;stroke-width:1.0;"/><text fill="#000000" font-family="sans-serif" font-size="14" lengthAdjust="spacing" textLength="168" x="242" y="610">output_file_id: ULID &#171;FK&#187;</text><ellipse cx="233" cy="622.6973" fill="#000000" rx="3" ry="3" style="stroke:#000000;stroke-width:1.0;"/><text fill="#000000" font-family="sans-serif" font-size="14" lengthAdjust="spacing" textLength="75" x="242" y="626.4883">text: string</text><ellipse cx="233" cy="639.1855" fill="#000000" rx="3" ry="3" style="stroke:#000000;stroke-width:1.0;"/><text fill="#000000" font-family="sans-serif" font-size="14" lengthAdjust="spacing" textLength="85" x="242" y="642.9766">top: number</text><ellipse cx="233" cy="655.6738" fill="#000000" rx="3" ry="3" style="stroke:#000000;stroke-width:1.0;"/><text fill="#000000" font-family="sans-serif" font-size="14" lengthAdjust="spacing" textLength="112" x="242" y="659.4648">bottom: number</text><ellipse cx="233" cy="672.1621" fill="#000000" rx="3" ry="3" style="stroke:#000000;stroke-width:1.0;"/><text fill="#000000" font-family="sans-serif" font-size="14" lengthAdjust="spacing" textLength="84" x="242" y="675.9531">left: number</text><ellipse cx="233" cy="688.6504" fill="#000000" rx="3" ry="3" style="stroke:#000000;stroke-width:1.0;"/><text fill="#000000" font-family="sans-serif" font-size="14" lengthAdjust="spacing" textLength="95" x="242" y="692.4414">right: number</text><ellipse cx="233" cy="705.1387" fill="#000000" rx="3" ry="3" style="stroke:#000000;stroke-width:1.0;"/><text fill="#000000" font-family="sans-serif" font-size="14" lengthAdjust="spacing" textLength="139" x="242" y="708.9297">created_at: datetime</text><ellipse cx="233" cy="721.627" fill="#000000" rx="3" ry="3" style="stroke:#000000;stroke-width:1.0;"/><text fill="#000000" font-family="sans-serif" font-size="14" lengthAdjust="spacing" textLength="145" x="242" y="725.418">updated_at: datetime</text><text fill="#000000" font-family="sans-serif" font-size="14" lengthAdjust="spacing" textLength="139" x="242" y="741.9063">deleted_at: datetime</text></g><!--link Jobs to InputFiles--><g id="link_Jobs_InputFiles"><path codeLine="64" d="M180.55,145.99 C173.67,161.96 166.21,179.28 158.75,196.58 " fill="none" id="Jobs-InputFiles" style="stroke:#181818;stroke-width:1.0;stroke-dasharray:7.0,7.0;"/><line style="stroke:#181818;stroke-width:1.0;" x1="178.4319" x2="185.7761" y1="140.7861" y2="143.9581"/><line style="stroke:#181818;stroke-width:1.0;" x1="177.2423" x2="184.5866" y1="143.5402" y2="146.7122"/><line style="stroke:#181818;stroke-width:1.0;" x1="180.518" x2="183.69" y1="146.0443" y2="138.7"/><line style="stroke:#181818;stroke-width:1.0;" x1="158.8448" x2="161.2038" y1="196.3283" y2="206.0461"/><line style="stroke:#181818;stroke-width:1.0;" x1="158.8448" x2="150.1762" y1="196.3283" y2="201.3139"/><line style="stroke:#181818;stroke-width:1.0;" x1="158.8448" x2="155.69" y1="196.3283" y2="203.68"/><ellipse cx="161.2109" cy="190.8146" fill="none" rx="4" ry="4" style="stroke:#181818;stroke-width:1.0;"/></g><!--link Jobs to OutputFiles--><g id="link_Jobs_OutputFiles"><path codeLine="65" d="M243.59,145.63 C249.47,159.15 255.78,173.65 262.15,188.3 " fill="none" id="Jobs-OutputFiles" style="stroke:#181818;stroke-width:1.0;stroke-dasharray:7.0,7.0;"/><line style="stroke:#181818;stroke-width:1.0;" x1="238.5025" x2="245.8416" y1="143.9616" y2="140.7775"/><line style="stroke:#181818;stroke-width:1.0;" x1="239.6965" x2="247.0356" y1="146.7137" y2="143.5296"/><line style="stroke:#181818;stroke-width:1.0;" x1="243.7641" x2="240.58" y1="146.0391" y2="138.7"/><line style="stroke:#181818;stroke-width:1.0;" x1="262.1159" x2="270.8043" y1="188.2009" y2="193.152"/><line style="stroke:#181818;stroke-width:1.0;" x1="262.1159" x2="259.7957" y1="188.2009" y2="197.928"/><line style="stroke:#181818;stroke-width:1.0;" x1="262.1159" x2="265.3" y1="188.2009" y2="195.54"/><ellipse cx="259.7279" cy="182.6967" fill="none" rx="4" ry="4" style="stroke:#181818;stroke-width:1.0;"/></g><!--link OutputFiles to ExtractedTexts--><g id="link_OutputFiles_ExtractedTexts"><path codeLine="66" d="M319,452.58 C319,466.17 319,479.97 319,493.55 " fill="none" id="OutputFiles-ExtractedTexts" style="stroke:#181818;stroke-width:1.0;stroke-dasharray:7.0,7.0;"/><line style="stroke:#181818;stroke-width:1.0;" x1="315" x2="323" y1="448.85" y2="448.85"/><line style="stroke:#181818;stroke-width:1.0;" x1="315" x2="323" y1="451.85" y2="451.85"/><line style="stroke:#181818;stroke-width:1.0;" x1="319" x2="319" y1="452.85" y2="444.85"/><line style="stroke:#181818;stroke-width:1.0;" x1="319" x2="327" y1="493.4" y2="501.4"/><line style="stroke:#181818;stroke-width:1.0;" x1="319" x2="311" y1="493.4" y2="501.4"/><line style="stroke:#181818;stroke-width:1.0;" x1="319" x2="319" y1="493.4" y2="501.4"/></g><!--SRC=[tPEnJiCm48PtFyNDIEq3H5MdKgc0n03CbcDV6aDYHyvPRMXvTwvk4R6W2ofBj_FtE_RvYuqkjl14Yc8FEm4GedFMhRdgezQ81WtNbR8D5nz2e2DB0zpvyZZ_1gmfuELXjU31P998dvOhJiicf0CgGYCL5M2u8jjY2c9dVWi033Ru8_XkOEMwI4lkwdmRhxwKNnHci-NzV9vunL_9DnmARZGSptg2JhMOKUqTyOQIXYuFUllEWDsL61BOM4DrHcgqwveoT74BZv7-hC4U3CfqxYktTBkbe3HFUCOjNLoKJ__WV4wyQMQ5V9UTj_H4lirGWrNk9FoZfVIMz_lfrEz6poh3eticndVk41lESyFY4m00]--></g></svg>