<?xml version="1.0" encoding="us-ascii" standalone="no"?><svg xmlns="http://www.w3.org/2000/svg" xmlns:xlink="http://www.w3.org/1999/xlink" contentStyleType="text/css" height="788px" preserveAspectRatio="none" style="width:612px;height:788px;background:#FFFFFF;" version="1.1" viewBox="0 0 612 788" width="612px" zoomAndPan="magnify"><defs/><g><!--class JobStatus--><g id="elem_JobStatus"><rect codeLine="2" fill="#F1F1F1" height="97.4648" id="JobStatus" rx="2.5" ry="2.5" style="stroke:#181818;stroke-width:0.5;" width="96" x="7" y="40"/><ellipse cx="22" cy="56" fill="#EB937F" rx="11" ry="11" style="stroke:#181818;stroke-width:1.0;"/><path d="M25.6143,62.5 L17.8945,62.5 L17.8945,50.1069 L25.6143,50.1069 L25.6143,52.2651 L20.3433,52.2651 L20.3433,54.938 L25.1162,54.938 L25.1162,57.0962 L20.3433,57.0962 L20.3433,60.3418 L25.6143,60.3418 Z " fill="#000000"/><text fill="#000000" font-family="sans-serif" font-size="14" lengthAdjust="spacing" textLength="64" x="36" y="61.291">JobStatus</text><line style="stroke:#181818;stroke-width:0.5;" x1="8" x2="102" y1="72" y2="72"/><text fill="#000000" font-family="sans-serif" font-size="14" lengthAdjust="spacing" textLength="55" x="13" y="89.5352">running</text><text fill="#000000" font-family="sans-serif" font-size="14" lengthAdjust="spacing" textLength="72" x="13" y="106.0234">succeeded</text><text fill="#000000" font-family="sans-serif" font-size="14" lengthAdjust="spacing" textLength="38" x="13" y="122.5117">failed</text><line style="stroke:#181818;stroke-width:0.5;" x1="8" x2="102" y1="129.4648" y2="129.4648"/></g><!--class InputFileStatus--><g id="elem_InputFileStatus"><rect codeLine="8" fill="#F1F1F1" height="97.4648" id="InputFileStatus" rx="2.5" ry="2.5" style="stroke:#181818;stroke-width:0.5;" width="134" x="138" y="40"/><ellipse cx="153" cy="56" fill="#EB937F" rx="11" ry="11" style="stroke:#181818;stroke-width:1.0;"/><path d="M156.6143,62.5 L148.8945,62.5 L148.8945,50.1069 L156.6143,50.1069 L156.6143,52.2651 L151.3433,52.2651 L151.3433,54.938 L156.1162,54.938 L156.1162,57.0962 L151.3433,57.0962 L151.3433,60.3418 L156.6143,60.3418 Z " fill="#000000"/><text fill="#000000" font-family="sans-serif" font-size="14" lengthAdjust="spacing" textLength="102" x="167" y="61.291">InputFileStatus</text><line style="stroke:#181818;stroke-width:0.5;" x1="139" x2="271" y1="72" y2="72"/><text fill="#000000" font-family="sans-serif" font-size="14" lengthAdjust="spacing" textLength="55" x="144" y="89.5352">running</text><text fill="#000000" font-family="sans-serif" font-size="14" lengthAdjust="spacing" textLength="72" x="144" y="106.0234">succeeded</text><text fill="#000000" font-family="sans-serif" font-size="14" lengthAdjust="spacing" textLength="38" x="144" y="122.5117">failed</text><line style="stroke:#181818;stroke-width:0.5;" x1="139" x2="271" y1="129.4648" y2="129.4648"/></g><!--class Jobs--><g id="elem_Jobs"><rect codeLine="14" fill="#F1F1F1" height="163.418" id="Jobs" rx="2.5" ry="2.5" style="stroke:#181818;stroke-width:0.5;" width="185" x="307.5" y="7"/><ellipse cx="381.25" cy="23" fill="#ADD1B2" rx="11" ry="11" style="stroke:#181818;stroke-width:1.0;"/><path d="M384.8643,29.5 L377.1445,29.5 L377.1445,17.1069 L384.8643,17.1069 L384.8643,19.2651 L379.5933,19.2651 L379.5933,21.938 L384.3662,21.938 L384.3662,24.0962 L379.5933,24.0962 L379.5933,27.3418 L384.8643,27.3418 Z " fill="#000000"/><text fill="#000000" font-family="sans-serif" font-size="14" lengthAdjust="spacing" textLength="29" x="401.75" y="28.291">Jobs</text><line style="stroke:#181818;stroke-width:0.5;" x1="308.5" x2="491.5" y1="39" y2="39"/><ellipse cx="318.5" cy="52.7441" fill="#000000" rx="3" ry="3" style="stroke:#000000;stroke-width:1.0;"/><text fill="#000000" font-family="sans-serif" font-size="14" lengthAdjust="spacing" textLength="52" x="327.5" y="56.5352">id: ULID</text><line style="stroke:#181818;stroke-width:1.0;" x1="308.5" x2="491.5" y1="63.4883" y2="63.4883"/><ellipse cx="318.5" cy="77.2324" fill="#000000" rx="3" ry="3" style="stroke:#000000;stroke-width:1.0;"/><text fill="#000000" font-family="sans-serif" font-size="14" lengthAdjust="spacing" textLength="86" x="327.5" y="81.0234">name: string</text><ellipse cx="318.5" cy="93.7207" fill="#000000" rx="3" ry="3" style="stroke:#000000;stroke-width:1.0;"/><text fill="#000000" font-family="sans-serif" font-size="14" lengthAdjust="spacing" textLength="159" x="327.5" y="97.5117">original_file_key: string</text><ellipse cx="318.5" cy="110.209" fill="#000000" rx="3" ry="3" style="stroke:#000000;stroke-width:1.0;"/><text fill="#000000" font-family="sans-serif" font-size="14" lengthAdjust="spacing" textLength="113" x="327.5" y="114">status: JobStatus</text><ellipse cx="318.5" cy="126.6973" fill="#000000" rx="3" ry="3" style="stroke:#000000;stroke-width:1.0;"/><text fill="#000000" font-family="sans-serif" font-size="14" lengthAdjust="spacing" textLength="139" x="327.5" y="130.4883">created_at: datetime</text><ellipse cx="318.5" cy="143.1855" fill="#000000" rx="3" ry="3" style="stroke:#000000;stroke-width:1.0;"/><text fill="#000000" font-family="sans-serif" font-size="14" lengthAdjust="spacing" textLength="145" x="327.5" y="146.9766">updated_at: datetime</text><text fill="#000000" font-family="sans-serif" font-size="14" lengthAdjust="spacing" textLength="139" x="327.5" y="163.4648">deleted_at: datetime</text></g><!--class InputFiles--><g id="elem_InputFiles"><rect codeLine="25" fill="#F1F1F1" height="245.8594" id="InputFiles" rx="2.5" ry="2.5" style="stroke:#181818;stroke-width:0.5;" width="177" x="203.5" y="230"/><ellipse cx="254.25" cy="246" fill="#ADD1B2" rx="11" ry="11" style="stroke:#181818;stroke-width:1.0;"/><path d="M257.8643,252.5 L250.1445,252.5 L250.1445,240.1069 L257.8643,240.1069 L257.8643,242.2651 L252.5933,242.2651 L252.5933,244.938 L257.3662,244.938 L257.3662,247.0962 L252.5933,247.0962 L252.5933,250.3418 L257.8643,250.3418 Z " fill="#000000"/><text fill="#000000" font-family="sans-serif" font-size="14" lengthAdjust="spacing" textLength="67" x="274.75" y="251.291">InputFiles</text><line style="stroke:#181818;stroke-width:0.5;" x1="204.5" x2="379.5" y1="262" y2="262"/><ellipse cx="214.5" cy="275.7441" fill="#000000" rx="3" ry="3" style="stroke:#000000;stroke-width:1.0;"/><text fill="#000000" font-family="sans-serif" font-size="14" lengthAdjust="spacing" textLength="52" x="223.5" y="279.5352">id: ULID</text><line style="stroke:#181818;stroke-width:1.0;" x1="204.5" x2="379.5" y1="286.4883" y2="286.4883"/><ellipse cx="214.5" cy="300.2324" fill="#000000" rx="3" ry="3" style="stroke:#000000;stroke-width:1.0;"/><text fill="#000000" font-family="sans-serif" font-size="14" lengthAdjust="spacing" textLength="116" x="223.5" y="304.0234">job_id: ULID &#171;FK&#187;</text><ellipse cx="214.5" cy="316.7207" fill="#000000" rx="3" ry="3" style="stroke:#000000;stroke-width:1.0;"/><text fill="#000000" font-family="sans-serif" font-size="14" lengthAdjust="spacing" textLength="99" x="223.5" y="320.5117">file_key: string</text><ellipse cx="214.5" cy="333.209" fill="#000000" rx="3" ry="3" style="stroke:#000000;stroke-width:1.0;"/><text fill="#000000" font-family="sans-serif" font-size="14" lengthAdjust="spacing" textLength="114" x="223.5" y="337">file_name: string</text><ellipse cx="214.5" cy="349.6973" fill="#000000" rx="3" ry="3" style="stroke:#000000;stroke-width:1.0;"/><text fill="#000000" font-family="sans-serif" font-size="14" lengthAdjust="spacing" textLength="136" x="223.5" y="353.4883">content_type: string</text><ellipse cx="214.5" cy="366.1855" fill="#000000" rx="3" ry="3" style="stroke:#000000;stroke-width:1.0;"/><text fill="#000000" font-family="sans-serif" font-size="14" lengthAdjust="spacing" textLength="89" x="223.5" y="369.9766">size: number</text><ellipse cx="214.5" cy="382.6738" fill="#000000" rx="3" ry="3" style="stroke:#000000;stroke-width:1.0;"/><text fill="#000000" font-family="sans-serif" font-size="14" lengthAdjust="spacing" textLength="100" x="223.5" y="386.4648">width: number</text><ellipse cx="214.5" cy="399.1621" fill="#000000" rx="3" ry="3" style="stroke:#000000;stroke-width:1.0;"/><text fill="#000000" font-family="sans-serif" font-size="14" lengthAdjust="spacing" textLength="106" x="223.5" y="402.9531">height: number</text><ellipse cx="214.5" cy="415.6504" fill="#000000" rx="3" ry="3" style="stroke:#000000;stroke-width:1.0;"/><text fill="#000000" font-family="sans-serif" font-size="14" lengthAdjust="spacing" textLength="151" x="223.5" y="419.4414">status: InputFileStatus</text><ellipse cx="214.5" cy="432.1387" fill="#000000" rx="3" ry="3" style="stroke:#000000;stroke-width:1.0;"/><text fill="#000000" font-family="sans-serif" font-size="14" lengthAdjust="spacing" textLength="139" x="223.5" y="435.9297">created_at: datetime</text><ellipse cx="214.5" cy="448.627" fill="#000000" rx="3" ry="3" style="stroke:#000000;stroke-width:1.0;"/><text fill="#000000" font-family="sans-serif" font-size="14" lengthAdjust="spacing" textLength="145" x="223.5" y="452.418">updated_at: datetime</text><text fill="#000000" font-family="sans-serif" font-size="14" lengthAdjust="spacing" textLength="139" x="223.5" y="468.9063">deleted_at: datetime</text></g><!--class OutputFiles--><g id="elem_OutputFiles"><rect codeLine="41" fill="#F1F1F1" height="245.8594" id="OutputFiles" rx="2.5" ry="2.5" style="stroke:#181818;stroke-width:0.5;" width="184" x="416" y="230"/><ellipse cx="464.25" cy="246" fill="#ADD1B2" rx="11" ry="11" style="stroke:#181818;stroke-width:1.0;"/><path d="M467.8643,252.5 L460.1445,252.5 L460.1445,240.1069 L467.8643,240.1069 L467.8643,242.2651 L462.5933,242.2651 L462.5933,244.938 L467.3662,244.938 L467.3662,247.0962 L462.5933,247.0962 L462.5933,250.3418 L467.8643,250.3418 Z " fill="#000000"/><text fill="#000000" font-family="sans-serif" font-size="14" lengthAdjust="spacing" textLength="79" x="484.75" y="251.291">OutputFiles</text><line style="stroke:#181818;stroke-width:0.5;" x1="417" x2="599" y1="262" y2="262"/><ellipse cx="427" cy="275.7441" fill="#000000" rx="3" ry="3" style="stroke:#000000;stroke-width:1.0;"/><text fill="#000000" font-family="sans-serif" font-size="14" lengthAdjust="spacing" textLength="52" x="436" y="279.5352">id: ULID</text><line style="stroke:#181818;stroke-width:1.0;" x1="417" x2="599" y1="286.4883" y2="286.4883"/><ellipse cx="427" cy="300.2324" fill="#000000" rx="3" ry="3" style="stroke:#000000;stroke-width:1.0;"/><text fill="#000000" font-family="sans-serif" font-size="14" lengthAdjust="spacing" textLength="116" x="436" y="304.0234">job_id: ULID &#171;FK&#187;</text><ellipse cx="427" cy="316.7207" fill="#000000" rx="3" ry="3" style="stroke:#000000;stroke-width:1.0;"/><text fill="#000000" font-family="sans-serif" font-size="14" lengthAdjust="spacing" textLength="158" x="436" y="320.5117">input_file_id: ULID &#171;FK&#187;</text><ellipse cx="427" cy="333.209" fill="#000000" rx="3" ry="3" style="stroke:#000000;stroke-width:1.0;"/><text fill="#000000" font-family="sans-serif" font-size="14" lengthAdjust="spacing" textLength="99" x="436" y="337">file_key: string</text><ellipse cx="427" cy="349.6973" fill="#000000" rx="3" ry="3" style="stroke:#000000;stroke-width:1.0;"/><text fill="#000000" font-family="sans-serif" font-size="14" lengthAdjust="spacing" textLength="114" x="436" y="353.4883">file_name: string</text><ellipse cx="427" cy="366.1855" fill="#000000" rx="3" ry="3" style="stroke:#000000;stroke-width:1.0;"/><text fill="#000000" font-family="sans-serif" font-size="14" lengthAdjust="spacing" textLength="136" x="436" y="369.9766">content_type: string</text><ellipse cx="427" cy="382.6738" fill="#000000" rx="3" ry="3" style="stroke:#000000;stroke-width:1.0;"/><text fill="#000000" font-family="sans-serif" font-size="14" lengthAdjust="spacing" textLength="89" x="436" y="386.4648">size: number</text><ellipse cx="427" cy="399.1621" fill="#000000" rx="3" ry="3" style="stroke:#000000;stroke-width:1.0;"/><text fill="#000000" font-family="sans-serif" font-size="14" lengthAdjust="spacing" textLength="100" x="436" y="402.9531">width: number</text><ellipse cx="427" cy="415.6504" fill="#000000" rx="3" ry="3" style="stroke:#000000;stroke-width:1.0;"/><text fill="#000000" font-family="sans-serif" font-size="14" lengthAdjust="spacing" textLength="106" x="436" y="419.4414">height: number</text><ellipse cx="427" cy="432.1387" fill="#000000" rx="3" ry="3" style="stroke:#000000;stroke-width:1.0;"/><text fill="#000000" font-family="sans-serif" font-size="14" lengthAdjust="spacing" textLength="139" x="436" y="435.9297">created_at: datetime</text><ellipse cx="427" cy="448.627" fill="#000000" rx="3" ry="3" style="stroke:#000000;stroke-width:1.0;"/><text fill="#000000" font-family="sans-serif" font-size="14" lengthAdjust="spacing" textLength="145" x="436" y="452.418">updated_at: datetime</text><text fill="#000000" font-family="sans-serif" font-size="14" lengthAdjust="spacing" textLength="139" x="436" y="468.9063">deleted_at: datetime</text></g><!--class ExtractedTexts--><g id="elem_ExtractedTexts"><rect codeLine="57" fill="#F1F1F1" height="245.8594" id="ExtractedTexts" rx="2.5" ry="2.5" style="stroke:#181818;stroke-width:0.5;" width="194" x="411" y="536"/><ellipse cx="452.55" cy="552" fill="#ADD1B2" rx="11" ry="11" style="stroke:#181818;stroke-width:1.0;"/><path d="M456.1643,558.5 L448.4445,558.5 L448.4445,546.1069 L456.1643,546.1069 L456.1643,548.2651 L450.8933,548.2651 L450.8933,550.938 L455.6662,550.938 L455.6662,553.0962 L450.8933,553.0962 L450.8933,556.3418 L456.1643,556.3418 Z " fill="#000000"/><text fill="#000000" font-family="sans-serif" font-size="14" lengthAdjust="spacing" textLength="103" x="472.45" y="557.291">ExtractedTexts</text><line style="stroke:#181818;stroke-width:0.5;" x1="412" x2="604" y1="568" y2="568"/><ellipse cx="422" cy="581.7441" fill="#000000" rx="3" ry="3" style="stroke:#000000;stroke-width:1.0;"/><text fill="#000000" font-family="sans-serif" font-size="14" lengthAdjust="spacing" textLength="52" x="431" y="585.5352">id: ULID</text><line style="stroke:#181818;stroke-width:1.0;" x1="412" x2="604" y1="592.4883" y2="592.4883"/><ellipse cx="422" cy="606.2324" fill="#000000" rx="3" ry="3" style="stroke:#000000;stroke-width:1.0;"/><text fill="#000000" font-family="sans-serif" font-size="14" lengthAdjust="spacing" textLength="116" x="431" y="610.0234">job_id: ULID &#171;FK&#187;</text><ellipse cx="422" cy="622.7207" fill="#000000" rx="3" ry="3" style="stroke:#000000;stroke-width:1.0;"/><text fill="#000000" font-family="sans-serif" font-size="14" lengthAdjust="spacing" textLength="158" x="431" y="626.5117">input_file_id: ULID &#171;FK&#187;</text><ellipse cx="422" cy="639.209" fill="#000000" rx="3" ry="3" style="stroke:#000000;stroke-width:1.0;"/><text fill="#000000" font-family="sans-serif" font-size="14" lengthAdjust="spacing" textLength="168" x="431" y="643">output_file_id: ULID &#171;FK&#187;</text><ellipse cx="422" cy="655.6973" fill="#000000" rx="3" ry="3" style="stroke:#000000;stroke-width:1.0;"/><text fill="#000000" font-family="sans-serif" font-size="14" lengthAdjust="spacing" textLength="75" x="431" y="659.4883">text: string</text><ellipse cx="422" cy="672.1855" fill="#000000" rx="3" ry="3" style="stroke:#000000;stroke-width:1.0;"/><text fill="#000000" font-family="sans-serif" font-size="14" lengthAdjust="spacing" textLength="85" x="431" y="675.9766">top: number</text><ellipse cx="422" cy="688.6738" fill="#000000" rx="3" ry="3" style="stroke:#000000;stroke-width:1.0;"/><text fill="#000000" font-family="sans-serif" font-size="14" lengthAdjust="spacing" textLength="112" x="431" y="692.4648">bottom: number</text><ellipse cx="422" cy="705.1621" fill="#000000" rx="3" ry="3" style="stroke:#000000;stroke-width:1.0;"/><text fill="#000000" font-family="sans-serif" font-size="14" lengthAdjust="spacing" textLength="84" x="431" y="708.9531">left: number</text><ellipse cx="422" cy="721.6504" fill="#000000" rx="3" ry="3" style="stroke:#000000;stroke-width:1.0;"/><text fill="#000000" font-family="sans-serif" font-size="14" lengthAdjust="spacing" textLength="95" x="431" y="725.4414">right: number</text><ellipse cx="422" cy="738.1387" fill="#000000" rx="3" ry="3" style="stroke:#000000;stroke-width:1.0;"/><text fill="#000000" font-family="sans-serif" font-size="14" lengthAdjust="spacing" textLength="139" x="431" y="741.9297">created_at: datetime</text><ellipse cx="422" cy="754.627" fill="#000000" rx="3" ry="3" style="stroke:#000000;stroke-width:1.0;"/><text fill="#000000" font-family="sans-serif" font-size="14" lengthAdjust="spacing" textLength="145" x="431" y="758.418">updated_at: datetime</text><text fill="#000000" font-family="sans-serif" font-size="14" lengthAdjust="spacing" textLength="139" x="431" y="774.9063">deleted_at: datetime</text></g><!--link Jobs to InputFiles--><g id="link_Jobs_InputFiles"><path codeLine="73" d="M363.41,178.44 C357.67,192.39 351.63,207.07 345.6,221.73 " fill="none" id="Jobs-InputFiles" style="stroke:#181818;stroke-width:1.0;stroke-dasharray:7.0,7.0;"/><line style="stroke:#181818;stroke-width:1.0;" x1="361.4993" x2="368.8982" y1="173.5782" y2="176.6207"/><line style="stroke:#181818;stroke-width:1.0;" x1="360.3584" x2="367.7573" y1="176.3528" y2="179.3952"/><line style="stroke:#181818;stroke-width:1.0;" x1="363.6776" x2="366.72" y1="178.7989" y2="171.4"/><line style="stroke:#181818;stroke-width:1.0;" x1="345.2974" x2="347.7976" y1="221.4632" y2="231.1456"/><line style="stroke:#181818;stroke-width:1.0;" x1="345.2974" x2="336.7024" y1="221.4632" y2="226.5744"/><line style="stroke:#181818;stroke-width:1.0;" x1="345.2974" x2="342.25" y1="221.4632" y2="228.86"/><ellipse cx="347.583" cy="215.9155" fill="none" rx="4" ry="4" style="stroke:#181818;stroke-width:1.0;"/></g><!--link Jobs to OutputFiles--><g id="link_Jobs_OutputFiles"><path codeLine="74" d="M436.59,178.44 C442.33,192.39 448.37,207.07 454.4,221.73 " fill="none" id="Jobs-OutputFiles" style="stroke:#181818;stroke-width:1.0;stroke-dasharray:7.0,7.0;"/><line style="stroke:#181818;stroke-width:1.0;" x1="431.1018" x2="438.5007" y1="176.6207" y2="173.5782"/><line style="stroke:#181818;stroke-width:1.0;" x1="432.2427" x2="439.6416" y1="179.3952" y2="176.3528"/><line style="stroke:#181818;stroke-width:1.0;" x1="436.3224" x2="433.28" y1="178.7989" y2="171.4"/><line style="stroke:#181818;stroke-width:1.0;" x1="454.7026" x2="463.2976" y1="221.4632" y2="226.5744"/><line style="stroke:#181818;stroke-width:1.0;" x1="454.7026" x2="452.2024" y1="221.4632" y2="231.1456"/><line style="stroke:#181818;stroke-width:1.0;" x1="454.7026" x2="457.75" y1="221.4632" y2="228.86"/><ellipse cx="452.417" cy="215.9155" fill="none" rx="4" ry="4" style="stroke:#181818;stroke-width:1.0;"/></g><!--link OutputFiles to ExtractedTexts--><g id="link_OutputFiles_ExtractedTexts"><path codeLine="75" d="M508,485.12 C508,499.09 508,513.29 508,527.26 " fill="none" id="OutputFiles-ExtractedTexts" style="stroke:#181818;stroke-width:1.0;stroke-dasharray:7.0,7.0;"/><line style="stroke:#181818;stroke-width:1.0;" x1="504" x2="512" y1="481.33" y2="481.33"/><line style="stroke:#181818;stroke-width:1.0;" x1="504" x2="512" y1="484.33" y2="484.33"/><line style="stroke:#181818;stroke-width:1.0;" x1="508" x2="508" y1="485.33" y2="477.33"/><line style="stroke:#181818;stroke-width:1.0;" x1="508" x2="516" y1="526.92" y2="534.92"/><line style="stroke:#181818;stroke-width:1.0;" x1="508" x2="500" y1="526.92" y2="534.92"/><line style="stroke:#181818;stroke-width:1.0;" x1="508" x2="508" y1="526.92" y2="534.92"/></g><!--SRC=[pPJ1Ri8m38RlVGgVaU01AiI98R5Dsc7ZNAMDssPhaofrD3hOkyzDnMW673Q1j9lp_Kbi_qwBsjLmRz9d4kHQs4K0rccjTC5Hwx8CKQBaE1Uguk0pYh0_ijQDenMZNnqaHLsVRTW_0ILZs3okbxoOJZtHeiOOMhB3HHCmLXLAYoh9-Pha3Rj0RNts-DY1fvb5GIWJGJ58ZaZLw0NNo7C2WCGAJuHZoT_TNYxyrQJ9WS9yldfOB3m_MxQ79wrcHXCdJAXhGg5L7mpOzXIj1-zAKXcG4bLHKe0EtlmOrMqSUdBqPujKN-0mt__buDLTkjkI5HblUC4jNTqeusTmMITE6hX2fWdwJGsHgGDKOHvwOc_ealypxFUpcTcDFha0ZzvPD7vplInP3nsElW00]--></g></svg>