<?xml version="1.0" encoding="us-ascii" standalone="no"?><svg xmlns="http://www.w3.org/2000/svg" xmlns:xlink="http://www.w3.org/1999/xlink" contentStyleType="text/css" height="449px" preserveAspectRatio="none" style="width:391px;height:449px;background:#FFFFFF;" version="1.1" viewBox="0 0 391 449" width="391px" zoomAndPan="magnify"><defs/><g><!--class Status--><g id="elem_Status"><rect codeLine="2" fill="#F1F1F1" height="97.4648" id="Status" rx="2.5" ry="2.5" style="stroke:#181818;stroke-width:0.5;" width="84" x="213.5" y="23.5"/><ellipse cx="233" cy="39.5" fill="#EB937F" rx="11" ry="11" style="stroke:#181818;stroke-width:1.0;"/><path d="M236.6143,46 L228.8945,46 L228.8945,33.6069 L236.6143,33.6069 L236.6143,35.7651 L231.3433,35.7651 L231.3433,38.438 L236.1162,38.438 L236.1162,40.5962 L231.3433,40.5962 L231.3433,43.8418 L236.6143,43.8418 Z " fill="#000000"/><text fill="#000000" font-family="sans-serif" font-size="14" lengthAdjust="spacing" textLength="42" x="248" y="44.791">Status</text><line style="stroke:#181818;stroke-width:0.5;" x1="214.5" x2="296.5" y1="55.5" y2="55.5"/><text fill="#000000" font-family="sans-serif" font-size="14" lengthAdjust="spacing" textLength="55" x="219.5" y="73.0352">running</text><text fill="#000000" font-family="sans-serif" font-size="14" lengthAdjust="spacing" textLength="72" x="219.5" y="89.5234">succeeded</text><text fill="#000000" font-family="sans-serif" font-size="14" lengthAdjust="spacing" textLength="38" x="219.5" y="106.0117">failed</text><line style="stroke:#181818;stroke-width:0.5;" x1="214.5" x2="296.5" y1="112.9648" y2="112.9648"/></g><!--class Jobs--><g id="elem_Jobs"><rect codeLine="8" fill="#F1F1F1" height="130.4414" id="Jobs" rx="2.5" ry="2.5" style="stroke:#181818;stroke-width:0.5;" width="171" x="7" y="7"/><ellipse cx="73.75" cy="23" fill="#ADD1B2" rx="11" ry="11" style="stroke:#181818;stroke-width:1.0;"/><path d="M77.3643,29.5 L69.6445,29.5 L69.6445,17.1069 L77.3643,17.1069 L77.3643,19.2651 L72.0933,19.2651 L72.0933,21.938 L76.8662,21.938 L76.8662,24.0962 L72.0933,24.0962 L72.0933,27.3418 L77.3643,27.3418 Z " fill="#000000"/><text fill="#000000" font-family="sans-serif" font-size="14" lengthAdjust="spacing" textLength="29" x="94.25" y="28.291">Jobs</text><line style="stroke:#181818;stroke-width:0.5;" x1="8" x2="177" y1="39" y2="39"/><ellipse cx="18" cy="52.7441" fill="#000000" rx="3" ry="3" style="stroke:#000000;stroke-width:1.0;"/><text fill="#000000" font-family="sans-serif" font-size="14" lengthAdjust="spacing" textLength="52" x="27" y="56.5352">id: ULID</text><line style="stroke:#181818;stroke-width:1.0;" x1="8" x2="177" y1="63.4883" y2="63.4883"/><ellipse cx="18" cy="77.2324" fill="#000000" rx="3" ry="3" style="stroke:#000000;stroke-width:1.0;"/><text fill="#000000" font-family="sans-serif" font-size="14" lengthAdjust="spacing" textLength="91" x="27" y="81.0234">status: Status</text><ellipse cx="18" cy="93.7207" fill="#000000" rx="3" ry="3" style="stroke:#000000;stroke-width:1.0;"/><text fill="#000000" font-family="sans-serif" font-size="14" lengthAdjust="spacing" textLength="139" x="27" y="97.5117">created_at: datetime</text><ellipse cx="18" cy="110.209" fill="#000000" rx="3" ry="3" style="stroke:#000000;stroke-width:1.0;"/><text fill="#000000" font-family="sans-serif" font-size="14" lengthAdjust="spacing" textLength="145" x="27" y="114">updated_at: datetime</text><text fill="#000000" font-family="sans-serif" font-size="14" lengthAdjust="spacing" textLength="139" x="27" y="130.4883">deleted_at: datetime</text></g><!--class JobFiles--><g id="elem_JobFiles"><rect codeLine="17" fill="#F1F1F1" height="245.8594" id="JobFiles" rx="2.5" ry="2.5" style="stroke:#181818;stroke-width:0.5;" width="171" x="7" y="197"/><ellipse cx="61.75" cy="213" fill="#ADD1B2" rx="11" ry="11" style="stroke:#181818;stroke-width:1.0;"/><path d="M65.3643,219.5 L57.6445,219.5 L57.6445,207.1069 L65.3643,207.1069 L65.3643,209.2651 L60.0933,209.2651 L60.0933,211.938 L64.8662,211.938 L64.8662,214.0962 L60.0933,214.0962 L60.0933,217.3418 L65.3643,217.3418 Z " fill="#000000"/><text fill="#000000" font-family="sans-serif" font-size="14" lengthAdjust="spacing" textLength="53" x="82.25" y="218.291">JobFiles</text><line style="stroke:#181818;stroke-width:0.5;" x1="8" x2="177" y1="229" y2="229"/><ellipse cx="18" cy="242.7441" fill="#000000" rx="3" ry="3" style="stroke:#000000;stroke-width:1.0;"/><text fill="#000000" font-family="sans-serif" font-size="14" lengthAdjust="spacing" textLength="52" x="27" y="246.5352">id: ULID</text><line style="stroke:#181818;stroke-width:1.0;" x1="8" x2="177" y1="253.4883" y2="253.4883"/><ellipse cx="18" cy="267.2324" fill="#000000" rx="3" ry="3" style="stroke:#000000;stroke-width:1.0;"/><text fill="#000000" font-family="sans-serif" font-size="14" lengthAdjust="spacing" textLength="116" x="27" y="271.0234">job_id: ULID &#171;FK&#187;</text><ellipse cx="18" cy="283.7207" fill="#000000" rx="3" ry="3" style="stroke:#000000;stroke-width:1.0;"/><text fill="#000000" font-family="sans-serif" font-size="14" lengthAdjust="spacing" textLength="126" x="27" y="287.5117">is_output: number</text><ellipse cx="18" cy="300.209" fill="#000000" rx="3" ry="3" style="stroke:#000000;stroke-width:1.0;"/><text fill="#000000" font-family="sans-serif" font-size="14" lengthAdjust="spacing" textLength="99" x="27" y="304">file_key: string</text><ellipse cx="18" cy="316.6973" fill="#000000" rx="3" ry="3" style="stroke:#000000;stroke-width:1.0;"/><text fill="#000000" font-family="sans-serif" font-size="14" lengthAdjust="spacing" textLength="114" x="27" y="320.4883">file_name: string</text><ellipse cx="18" cy="333.1855" fill="#000000" rx="3" ry="3" style="stroke:#000000;stroke-width:1.0;"/><text fill="#000000" font-family="sans-serif" font-size="14" lengthAdjust="spacing" textLength="136" x="27" y="336.9766">content_type: string</text><ellipse cx="18" cy="349.6738" fill="#000000" rx="3" ry="3" style="stroke:#000000;stroke-width:1.0;"/><text fill="#000000" font-family="sans-serif" font-size="14" lengthAdjust="spacing" textLength="89" x="27" y="353.4648">size: number</text><ellipse cx="18" cy="366.1621" fill="#000000" rx="3" ry="3" style="stroke:#000000;stroke-width:1.0;"/><text fill="#000000" font-family="sans-serif" font-size="14" lengthAdjust="spacing" textLength="100" x="27" y="369.9531">width: number</text><ellipse cx="18" cy="382.6504" fill="#000000" rx="3" ry="3" style="stroke:#000000;stroke-width:1.0;"/><text fill="#000000" font-family="sans-serif" font-size="14" lengthAdjust="spacing" textLength="106" x="27" y="386.4414">height: number</text><ellipse cx="18" cy="399.1387" fill="#000000" rx="3" ry="3" style="stroke:#000000;stroke-width:1.0;"/><text fill="#000000" font-family="sans-serif" font-size="14" lengthAdjust="spacing" textLength="139" x="27" y="402.9297">created_at: datetime</text><ellipse cx="18" cy="415.627" fill="#000000" rx="3" ry="3" style="stroke:#000000;stroke-width:1.0;"/><text fill="#000000" font-family="sans-serif" font-size="14" lengthAdjust="spacing" textLength="145" x="27" y="419.418">updated_at: datetime</text><text fill="#000000" font-family="sans-serif" font-size="14" lengthAdjust="spacing" textLength="139" x="27" y="435.9063">deleted_at: datetime</text></g><!--class ExtractedTexts--><g id="elem_ExtractedTexts"><rect codeLine="33" fill="#F1F1F1" height="212.8828" id="ExtractedTexts" rx="2.5" ry="2.5" style="stroke:#181818;stroke-width:0.5;" width="171" x="213" y="213.5"/><ellipse cx="244.2" cy="229.5" fill="#ADD1B2" rx="11" ry="11" style="stroke:#181818;stroke-width:1.0;"/><path d="M247.8143,236 L240.0945,236 L240.0945,223.6069 L247.8143,223.6069 L247.8143,225.7651 L242.5433,225.7651 L242.5433,228.438 L247.3162,228.438 L247.3162,230.5962 L242.5433,230.5962 L242.5433,233.8418 L247.8143,233.8418 Z " fill="#000000"/><text fill="#000000" font-family="sans-serif" font-size="14" lengthAdjust="spacing" textLength="103" x="261.8" y="234.791">ExtractedTexts</text><line style="stroke:#181818;stroke-width:0.5;" x1="214" x2="383" y1="245.5" y2="245.5"/><ellipse cx="224" cy="259.2441" fill="#000000" rx="3" ry="3" style="stroke:#000000;stroke-width:1.0;"/><text fill="#000000" font-family="sans-serif" font-size="14" lengthAdjust="spacing" textLength="52" x="233" y="263.0352">id: ULID</text><line style="stroke:#181818;stroke-width:1.0;" x1="214" x2="383" y1="269.9883" y2="269.9883"/><ellipse cx="224" cy="283.7324" fill="#000000" rx="3" ry="3" style="stroke:#000000;stroke-width:1.0;"/><text fill="#000000" font-family="sans-serif" font-size="14" lengthAdjust="spacing" textLength="144" x="233" y="287.5234">job_file_id: ULID &#171;FK&#187;</text><ellipse cx="224" cy="300.2207" fill="#000000" rx="3" ry="3" style="stroke:#000000;stroke-width:1.0;"/><text fill="#000000" font-family="sans-serif" font-size="14" lengthAdjust="spacing" textLength="75" x="233" y="304.0117">text: string</text><ellipse cx="224" cy="316.709" fill="#000000" rx="3" ry="3" style="stroke:#000000;stroke-width:1.0;"/><text fill="#000000" font-family="sans-serif" font-size="14" lengthAdjust="spacing" textLength="85" x="233" y="320.5">top: number</text><ellipse cx="224" cy="333.1973" fill="#000000" rx="3" ry="3" style="stroke:#000000;stroke-width:1.0;"/><text fill="#000000" font-family="sans-serif" font-size="14" lengthAdjust="spacing" textLength="112" x="233" y="336.9883">bottom: number</text><ellipse cx="224" cy="349.6855" fill="#000000" rx="3" ry="3" style="stroke:#000000;stroke-width:1.0;"/><text fill="#000000" font-family="sans-serif" font-size="14" lengthAdjust="spacing" textLength="84" x="233" y="353.4766">left: number</text><ellipse cx="224" cy="366.1738" fill="#000000" rx="3" ry="3" style="stroke:#000000;stroke-width:1.0;"/><text fill="#000000" font-family="sans-serif" font-size="14" lengthAdjust="spacing" textLength="95" x="233" y="369.9648">right: number</text><ellipse cx="224" cy="382.6621" fill="#000000" rx="3" ry="3" style="stroke:#000000;stroke-width:1.0;"/><text fill="#000000" font-family="sans-serif" font-size="14" lengthAdjust="spacing" textLength="139" x="233" y="386.4531">created_at: datetime</text><ellipse cx="224" cy="399.1504" fill="#000000" rx="3" ry="3" style="stroke:#000000;stroke-width:1.0;"/><text fill="#000000" font-family="sans-serif" font-size="14" lengthAdjust="spacing" textLength="145" x="233" y="402.9414">updated_at: datetime</text><text fill="#000000" font-family="sans-serif" font-size="14" lengthAdjust="spacing" textLength="139" x="233" y="419.4297">deleted_at: datetime</text></g><!--link Jobs to JobFiles--><g id="link_Jobs_JobFiles"><path codeLine="47" d="M92.5,146.52 C92.5,159.59 92.5,173.54 92.5,187.65 " fill="none" id="Jobs-JobFiles" style="stroke:#181818;stroke-width:1.0;stroke-dasharray:7.0,7.0;"/><line style="stroke:#181818;stroke-width:1.0;" x1="88.5" x2="96.5" y1="142.83" y2="142.83"/><line style="stroke:#181818;stroke-width:1.0;" x1="88.5" x2="96.5" y1="145.83" y2="145.83"/><line style="stroke:#181818;stroke-width:1.0;" x1="92.5" x2="92.5" y1="146.83" y2="138.83"/><line style="stroke:#181818;stroke-width:1.0;" x1="92.5" x2="98.5" y1="187.42" y2="195.42"/><line style="stroke:#181818;stroke-width:1.0;" x1="92.5" x2="86.5" y1="187.42" y2="195.42"/><line style="stroke:#181818;stroke-width:1.0;" x1="92.5" x2="92.5" y1="187.42" y2="195.42"/><ellipse cx="92.5" cy="181.42" fill="none" rx="4" ry="4" style="stroke:#181818;stroke-width:1.0;"/></g><!--link JobFiles to ExtractedTexts--><g id="link_JobFiles_ExtractedTexts"><path codeLine="48" d="M187.58,320 C192.77,320 197.96,320 203.16,320 " fill="none" id="JobFiles-ExtractedTexts" style="stroke:#181818;stroke-width:1.0;stroke-dasharray:7.0,7.0;"/><line style="stroke:#181818;stroke-width:1.0;" x1="183.71" x2="183.71" y1="324" y2="316"/><line style="stroke:#181818;stroke-width:1.0;" x1="186.71" x2="186.71" y1="324" y2="316"/><line style="stroke:#181818;stroke-width:1.0;" x1="187.71" x2="179.71" y1="320" y2="320"/><line style="stroke:#181818;stroke-width:1.0;" x1="202.99" x2="210.99" y1="320" y2="314"/><line style="stroke:#181818;stroke-width:1.0;" x1="202.99" x2="210.99" y1="320" y2="326"/><line style="stroke:#181818;stroke-width:1.0;" x1="202.99" x2="210.99" y1="320" y2="320"/><ellipse cx="196.99" cy="320" fill="none" rx="4" ry="4" style="stroke:#181818;stroke-width:1.0;"/></g><!--SRC=[jLBBJiCm4BpdA_QCr7v0LFK4bNZS2cVBiJUD8R4ZUoqQMlwTnIcLLXHESDlCRCOpeqMV1zYIffpWK074xBtpEvvIDWRHekMvrQxduRsgq9EZ2Uv2C-zVWRCrF3tSNlF7Ob6GLEJgaso1J4HDQ9Mc6YnFv0OiH1xj9GB0Oe_V265Wmvv-Dl4S6lM5mcgrkL-lvysaGgOnion7Rp0Mj6KjzO9JpURZdFy4UZsWG4tmn2OKJQCaadj38VhgB7K2wT3jEldodpTpiwUe3Iyyufv-xwS4l5GIyQyY6uLHk6u2KHW4r6ChayL_p5hkxtXSBiFXV0hL-IO-YSYChABw0000]--></g></svg>