<?xml version="1.0" encoding="us-ascii" standalone="no"?><svg xmlns="http://www.w3.org/2000/svg" xmlns:xlink="http://www.w3.org/1999/xlink" contentStyleType="text/css" height="722px" preserveAspectRatio="none" style="width:304px;height:722px;background:#FFFFFF;" version="1.1" viewBox="0 0 304 722" width="304px" zoomAndPan="magnify"><defs/><g><!--class Status--><g id="elem_Status"><rect codeLine="2" fill="#F1F1F1" height="97.4648" id="Status" rx="2.5" ry="2.5" style="stroke:#181818;stroke-width:0.5;" width="84" x="7" y="23.5"/><ellipse cx="26.5" cy="39.5" fill="#EB937F" rx="11" ry="11" style="stroke:#181818;stroke-width:1.0;"/><path d="M30.1143,46 L22.3945,46 L22.3945,33.6069 L30.1143,33.6069 L30.1143,35.7651 L24.8433,35.7651 L24.8433,38.438 L29.6162,38.438 L29.6162,40.5962 L24.8433,40.5962 L24.8433,43.8418 L30.1143,43.8418 Z " fill="#000000"/><text fill="#000000" font-family="sans-serif" font-size="14" lengthAdjust="spacing" textLength="42" x="41.5" y="44.791">Status</text><line style="stroke:#181818;stroke-width:0.5;" x1="8" x2="90" y1="55.5" y2="55.5"/><text fill="#000000" font-family="sans-serif" font-size="14" lengthAdjust="spacing" textLength="55" x="13" y="73.0352">running</text><text fill="#000000" font-family="sans-serif" font-size="14" lengthAdjust="spacing" textLength="72" x="13" y="89.5234">succeeded</text><text fill="#000000" font-family="sans-serif" font-size="14" lengthAdjust="spacing" textLength="38" x="13" y="106.0117">failed</text><line style="stroke:#181818;stroke-width:0.5;" x1="8" x2="90" y1="112.9648" y2="112.9648"/></g><!--class Jobs--><g id="elem_Jobs"><rect codeLine="8" fill="#F1F1F1" height="130.4414" id="Jobs" rx="2.5" ry="2.5" style="stroke:#181818;stroke-width:0.5;" width="171" x="126.5" y="7"/><ellipse cx="193.25" cy="23" fill="#ADD1B2" rx="11" ry="11" style="stroke:#181818;stroke-width:1.0;"/><path d="M196.8643,29.5 L189.1445,29.5 L189.1445,17.1069 L196.8643,17.1069 L196.8643,19.2651 L191.5933,19.2651 L191.5933,21.938 L196.3662,21.938 L196.3662,24.0962 L191.5933,24.0962 L191.5933,27.3418 L196.8643,27.3418 Z " fill="#000000"/><text fill="#000000" font-family="sans-serif" font-size="14" lengthAdjust="spacing" textLength="29" x="213.75" y="28.291">Jobs</text><line style="stroke:#181818;stroke-width:0.5;" x1="127.5" x2="296.5" y1="39" y2="39"/><ellipse cx="137.5" cy="52.7441" fill="#000000" rx="3" ry="3" style="stroke:#000000;stroke-width:1.0;"/><text fill="#000000" font-family="sans-serif" font-size="14" lengthAdjust="spacing" textLength="52" x="146.5" y="56.5352">id: ULID</text><line style="stroke:#181818;stroke-width:1.0;" x1="127.5" x2="296.5" y1="63.4883" y2="63.4883"/><ellipse cx="137.5" cy="77.2324" fill="#000000" rx="3" ry="3" style="stroke:#000000;stroke-width:1.0;"/><text fill="#000000" font-family="sans-serif" font-size="14" lengthAdjust="spacing" textLength="91" x="146.5" y="81.0234">status: Status</text><ellipse cx="137.5" cy="93.7207" fill="#000000" rx="3" ry="3" style="stroke:#000000;stroke-width:1.0;"/><text fill="#000000" font-family="sans-serif" font-size="14" lengthAdjust="spacing" textLength="139" x="146.5" y="97.5117">created_at: datetime</text><ellipse cx="137.5" cy="110.209" fill="#000000" rx="3" ry="3" style="stroke:#000000;stroke-width:1.0;"/><text fill="#000000" font-family="sans-serif" font-size="14" lengthAdjust="spacing" textLength="145" x="146.5" y="114">updated_at: datetime</text><text fill="#000000" font-family="sans-serif" font-size="14" lengthAdjust="spacing" textLength="139" x="146.5" y="130.4883">deleted_at: datetime</text></g><!--class JobFiles--><g id="elem_JobFiles"><rect codeLine="17" fill="#F1F1F1" height="245.8594" id="JobFiles" rx="2.5" ry="2.5" style="stroke:#181818;stroke-width:0.5;" width="171" x="126.5" y="197"/><ellipse cx="181.25" cy="213" fill="#ADD1B2" rx="11" ry="11" style="stroke:#181818;stroke-width:1.0;"/><path d="M184.8643,219.5 L177.1445,219.5 L177.1445,207.1069 L184.8643,207.1069 L184.8643,209.2651 L179.5933,209.2651 L179.5933,211.938 L184.3662,211.938 L184.3662,214.0962 L179.5933,214.0962 L179.5933,217.3418 L184.8643,217.3418 Z " fill="#000000"/><text fill="#000000" font-family="sans-serif" font-size="14" lengthAdjust="spacing" textLength="53" x="201.75" y="218.291">JobFiles</text><line style="stroke:#181818;stroke-width:0.5;" x1="127.5" x2="296.5" y1="229" y2="229"/><ellipse cx="137.5" cy="242.7441" fill="#000000" rx="3" ry="3" style="stroke:#000000;stroke-width:1.0;"/><text fill="#000000" font-family="sans-serif" font-size="14" lengthAdjust="spacing" textLength="52" x="146.5" y="246.5352">id: ULID</text><line style="stroke:#181818;stroke-width:1.0;" x1="127.5" x2="296.5" y1="253.4883" y2="253.4883"/><ellipse cx="137.5" cy="267.2324" fill="#000000" rx="3" ry="3" style="stroke:#000000;stroke-width:1.0;"/><text fill="#000000" font-family="sans-serif" font-size="14" lengthAdjust="spacing" textLength="116" x="146.5" y="271.0234">job_id: ULID &#171;FK&#187;</text><ellipse cx="137.5" cy="283.7207" fill="#000000" rx="3" ry="3" style="stroke:#000000;stroke-width:1.0;"/><text fill="#000000" font-family="sans-serif" font-size="14" lengthAdjust="spacing" textLength="126" x="146.5" y="287.5117">is_output: number</text><ellipse cx="137.5" cy="300.209" fill="#000000" rx="3" ry="3" style="stroke:#000000;stroke-width:1.0;"/><text fill="#000000" font-family="sans-serif" font-size="14" lengthAdjust="spacing" textLength="99" x="146.5" y="304">file_key: string</text><ellipse cx="137.5" cy="316.6973" fill="#000000" rx="3" ry="3" style="stroke:#000000;stroke-width:1.0;"/><text fill="#000000" font-family="sans-serif" font-size="14" lengthAdjust="spacing" textLength="114" x="146.5" y="320.4883">file_name: string</text><ellipse cx="137.5" cy="333.1855" fill="#000000" rx="3" ry="3" style="stroke:#000000;stroke-width:1.0;"/><text fill="#000000" font-family="sans-serif" font-size="14" lengthAdjust="spacing" textLength="136" x="146.5" y="336.9766">content_type: string</text><ellipse cx="137.5" cy="349.6738" fill="#000000" rx="3" ry="3" style="stroke:#000000;stroke-width:1.0;"/><text fill="#000000" font-family="sans-serif" font-size="14" lengthAdjust="spacing" textLength="89" x="146.5" y="353.4648">size: number</text><ellipse cx="137.5" cy="366.1621" fill="#000000" rx="3" ry="3" style="stroke:#000000;stroke-width:1.0;"/><text fill="#000000" font-family="sans-serif" font-size="14" lengthAdjust="spacing" textLength="100" x="146.5" y="369.9531">width: number</text><ellipse cx="137.5" cy="382.6504" fill="#000000" rx="3" ry="3" style="stroke:#000000;stroke-width:1.0;"/><text fill="#000000" font-family="sans-serif" font-size="14" lengthAdjust="spacing" textLength="106" x="146.5" y="386.4414">height: number</text><ellipse cx="137.5" cy="399.1387" fill="#000000" rx="3" ry="3" style="stroke:#000000;stroke-width:1.0;"/><text fill="#000000" font-family="sans-serif" font-size="14" lengthAdjust="spacing" textLength="139" x="146.5" y="402.9297">created_at: datetime</text><ellipse cx="137.5" cy="415.627" fill="#000000" rx="3" ry="3" style="stroke:#000000;stroke-width:1.0;"/><text fill="#000000" font-family="sans-serif" font-size="14" lengthAdjust="spacing" textLength="145" x="146.5" y="419.418">updated_at: datetime</text><text fill="#000000" font-family="sans-serif" font-size="14" lengthAdjust="spacing" textLength="139" x="146.5" y="435.9063">deleted_at: datetime</text></g><!--class ExtractedTexts--><g id="elem_ExtractedTexts"><rect codeLine="33" fill="#F1F1F1" height="212.8828" id="ExtractedTexts" rx="2.5" ry="2.5" style="stroke:#181818;stroke-width:0.5;" width="171" x="126.5" y="503"/><ellipse cx="157.7" cy="519" fill="#ADD1B2" rx="11" ry="11" style="stroke:#181818;stroke-width:1.0;"/><path d="M161.3143,525.5 L153.5945,525.5 L153.5945,513.1069 L161.3143,513.1069 L161.3143,515.2651 L156.0433,515.2651 L156.0433,517.938 L160.8162,517.938 L160.8162,520.0962 L156.0433,520.0962 L156.0433,523.3418 L161.3143,523.3418 Z " fill="#000000"/><text fill="#000000" font-family="sans-serif" font-size="14" lengthAdjust="spacing" textLength="103" x="175.3" y="524.291">ExtractedTexts</text><line style="stroke:#181818;stroke-width:0.5;" x1="127.5" x2="296.5" y1="535" y2="535"/><ellipse cx="137.5" cy="548.7441" fill="#000000" rx="3" ry="3" style="stroke:#000000;stroke-width:1.0;"/><text fill="#000000" font-family="sans-serif" font-size="14" lengthAdjust="spacing" textLength="52" x="146.5" y="552.5352">id: ULID</text><line style="stroke:#181818;stroke-width:1.0;" x1="127.5" x2="296.5" y1="559.4883" y2="559.4883"/><ellipse cx="137.5" cy="573.2324" fill="#000000" rx="3" ry="3" style="stroke:#000000;stroke-width:1.0;"/><text fill="#000000" font-family="sans-serif" font-size="14" lengthAdjust="spacing" textLength="144" x="146.5" y="577.0234">job_file_id: ULID &#171;FK&#187;</text><ellipse cx="137.5" cy="589.7207" fill="#000000" rx="3" ry="3" style="stroke:#000000;stroke-width:1.0;"/><text fill="#000000" font-family="sans-serif" font-size="14" lengthAdjust="spacing" textLength="75" x="146.5" y="593.5117">text: string</text><ellipse cx="137.5" cy="606.209" fill="#000000" rx="3" ry="3" style="stroke:#000000;stroke-width:1.0;"/><text fill="#000000" font-family="sans-serif" font-size="14" lengthAdjust="spacing" textLength="85" x="146.5" y="610">top: number</text><ellipse cx="137.5" cy="622.6973" fill="#000000" rx="3" ry="3" style="stroke:#000000;stroke-width:1.0;"/><text fill="#000000" font-family="sans-serif" font-size="14" lengthAdjust="spacing" textLength="112" x="146.5" y="626.4883">bottom: number</text><ellipse cx="137.5" cy="639.1855" fill="#000000" rx="3" ry="3" style="stroke:#000000;stroke-width:1.0;"/><text fill="#000000" font-family="sans-serif" font-size="14" lengthAdjust="spacing" textLength="84" x="146.5" y="642.9766">left: number</text><ellipse cx="137.5" cy="655.6738" fill="#000000" rx="3" ry="3" style="stroke:#000000;stroke-width:1.0;"/><text fill="#000000" font-family="sans-serif" font-size="14" lengthAdjust="spacing" textLength="95" x="146.5" y="659.4648">right: number</text><ellipse cx="137.5" cy="672.1621" fill="#000000" rx="3" ry="3" style="stroke:#000000;stroke-width:1.0;"/><text fill="#000000" font-family="sans-serif" font-size="14" lengthAdjust="spacing" textLength="139" x="146.5" y="675.9531">created_at: datetime</text><ellipse cx="137.5" cy="688.6504" fill="#000000" rx="3" ry="3" style="stroke:#000000;stroke-width:1.0;"/><text fill="#000000" font-family="sans-serif" font-size="14" lengthAdjust="spacing" textLength="145" x="146.5" y="692.4414">updated_at: datetime</text><text fill="#000000" font-family="sans-serif" font-size="14" lengthAdjust="spacing" textLength="139" x="146.5" y="708.9297">deleted_at: datetime</text></g><!--link Jobs to JobFiles--><g id="link_Jobs_JobFiles"><path codeLine="47" d="M212,146.52 C212,159.59 212,173.54 212,187.65 " fill="none" id="Jobs-JobFiles" style="stroke:#181818;stroke-width:1.0;stroke-dasharray:7.0,7.0;"/><line style="stroke:#181818;stroke-width:1.0;" x1="208" x2="216" y1="142.83" y2="142.83"/><line style="stroke:#181818;stroke-width:1.0;" x1="208" x2="216" y1="145.83" y2="145.83"/><line style="stroke:#181818;stroke-width:1.0;" x1="212" x2="212" y1="146.83" y2="138.83"/><line style="stroke:#181818;stroke-width:1.0;" x1="212" x2="218" y1="187.42" y2="195.42"/><line style="stroke:#181818;stroke-width:1.0;" x1="212" x2="206" y1="187.42" y2="195.42"/><line style="stroke:#181818;stroke-width:1.0;" x1="212" x2="212" y1="187.42" y2="195.42"/><ellipse cx="212" cy="181.42" fill="none" rx="4" ry="4" style="stroke:#181818;stroke-width:1.0;"/></g><!--link JobFiles to ExtractedTexts--><g id="link_JobFiles_ExtractedTexts"><path codeLine="48" d="M212,452.62 C212,466.23 212,479.98 212,493.39 " fill="none" id="JobFiles-ExtractedTexts" style="stroke:#181818;stroke-width:1.0;stroke-dasharray:7.0,7.0;"/><line style="stroke:#181818;stroke-width:1.0;" x1="208" x2="216" y1="448.86" y2="448.86"/><line style="stroke:#181818;stroke-width:1.0;" x1="208" x2="216" y1="451.86" y2="451.86"/><line style="stroke:#181818;stroke-width:1.0;" x1="212" x2="212" y1="452.86" y2="444.86"/><line style="stroke:#181818;stroke-width:1.0;" x1="212" x2="218" y1="493.1" y2="501.1"/><line style="stroke:#181818;stroke-width:1.0;" x1="212" x2="206" y1="493.1" y2="501.1"/><line style="stroke:#181818;stroke-width:1.0;" x1="212" x2="212" y1="493.1" y2="501.1"/><ellipse cx="212" cy="487.1" fill="none" rx="4" ry="4" style="stroke:#181818;stroke-width:1.0;"/></g><!--SRC=[jLBBJiCm4BpdA_QCr7v0LFK4bNZSWBFbs9l6aDYHlHODBV_EoWcLLXHESDlCRCOpeqMV1tWaJJd1iGA8sNldzpobR0oYHSjpgrtFmqTLeIT74zo5Pjw_0cThU7wulUQFrQeWgSZLYso1J4HDQ9Mc6YnFv0OiH1xj9GB0Oe_V265Wnvv-Dl4I6lM5mcQpkzzkvysaGgOnion7Rp0Mj6KjzOfJpURZd7y1lHvGe2PuOXEAfb4IoRsZ47rpbZg1TEZsdNpvpvkvEL3KXXUUy42_zrC2NYg9-5UHZS8eN3U1A0m2wh6LoU8_PYttTpgjr-5uFeNgV1CB8PkeFW40]--></g></svg>