<?xml version="1.0" encoding="UTF-8" standalone="no"?><svg xmlns="http://www.w3.org/2000/svg" xmlns:xlink="http://www.w3.org/1999/xlink" contentStyleType="text/css" height="449px" preserveAspectRatio="none" style="width:337px;height:449px;background:#FFFFFF;" version="1.1" viewBox="0 0 337 449" width="337px" zoomAndPan="magnify"><defs/><g><!--class Status--><g id="elem_Status"><rect codeLine="1" fill="#F1F1F1" height="97.4648" id="Status" rx="2.5" ry="2.5" style="stroke:#181818;stroke-width:0.5;" width="84" x="7" y="40"/><ellipse cx="26.5" cy="56" fill="#EB937F" rx="11" ry="11" style="stroke:#181818;stroke-width:1.0;"/><path d="M30.1143,62.5 L22.3945,62.5 L22.3945,50.1069 L30.1143,50.1069 L30.1143,52.2651 L24.8433,52.2651 L24.8433,54.938 L29.6162,54.938 L29.6162,57.0962 L24.8433,57.0962 L24.8433,60.3418 L30.1143,60.3418 Z " fill="#000000"/><text fill="#000000" font-family="sans-serif" font-size="14" lengthAdjust="spacing" textLength="42" x="41.5" y="61.291">Status</text><line style="stroke:#181818;stroke-width:0.5;" x1="8" x2="90" y1="72" y2="72"/><text fill="#000000" font-family="sans-serif" font-size="14" lengthAdjust="spacing" textLength="55" x="13" y="89.5352">running</text><text fill="#000000" font-family="sans-serif" font-size="14" lengthAdjust="spacing" textLength="72" x="13" y="106.0234">succeeded</text><text fill="#000000" font-family="sans-serif" font-size="14" lengthAdjust="spacing" textLength="38" x="13" y="122.5117">failed</text><line style="stroke:#181818;stroke-width:0.5;" x1="8" x2="90" y1="129.4648" y2="129.4648"/></g><!--class ExtractionResults--><g id="elem_ExtractionResults"><rect codeLine="7" fill="#F1F1F1" height="163.418" id="ExtractionResults" rx="2.5" ry="2.5" style="stroke:#181818;stroke-width:0.5;" width="171" x="126.5" y="7"/><ellipse cx="150.5" cy="23" fill="#ADD1B2" rx="11" ry="11" style="stroke:#181818;stroke-width:1.0;"/><path d="M154.1143,29.5 L146.3945,29.5 L146.3945,17.1069 L154.1143,17.1069 L154.1143,19.2651 L148.8433,19.2651 L148.8433,21.938 L153.6162,21.938 L153.6162,24.0962 L148.8433,24.0962 L148.8433,27.3418 L154.1143,27.3418 Z " fill="#000000"/><text fill="#000000" font-family="sans-serif" font-size="14" lengthAdjust="spacing" textLength="119" x="166.5" y="28.291">ExtractionResults</text><line style="stroke:#181818;stroke-width:0.5;" x1="127.5" x2="296.5" y1="39" y2="39"/><ellipse cx="137.5" cy="52.7441" fill="#000000" rx="3" ry="3" style="stroke:#000000;stroke-width:1.0;"/><text fill="#000000" font-family="sans-serif" font-size="14" lengthAdjust="spacing" textLength="52" x="146.5" y="56.5352">id: ULID</text><line style="stroke:#181818;stroke-width:1.0;" x1="127.5" x2="296.5" y1="63.4883" y2="63.4883"/><ellipse cx="137.5" cy="77.2324" fill="#000000" rx="3" ry="3" style="stroke:#000000;stroke-width:1.0;"/><text fill="#000000" font-family="sans-serif" font-size="14" lengthAdjust="spacing" textLength="91" x="146.5" y="81.0234">status: Status</text><ellipse cx="137.5" cy="93.7207" fill="#000000" rx="3" ry="3" style="stroke:#000000;stroke-width:1.0;"/><text fill="#000000" font-family="sans-serif" font-size="14" lengthAdjust="spacing" textLength="120" x="146.5" y="97.5117">image_key: string</text><text fill="#000000" font-family="sans-serif" font-size="14" lengthAdjust="spacing" textLength="124" x="146.5" y="114">output_key: string</text><ellipse cx="137.5" cy="126.6973" fill="#000000" rx="3" ry="3" style="stroke:#000000;stroke-width:1.0;"/><text fill="#000000" font-family="sans-serif" font-size="14" lengthAdjust="spacing" textLength="139" x="146.5" y="130.4883">created_at: datetime</text><ellipse cx="137.5" cy="143.1855" fill="#000000" rx="3" ry="3" style="stroke:#000000;stroke-width:1.0;"/><text fill="#000000" font-family="sans-serif" font-size="14" lengthAdjust="spacing" textLength="145" x="146.5" y="146.9766">updated_at: datetime</text><text fill="#000000" font-family="sans-serif" font-size="14" lengthAdjust="spacing" textLength="139" x="146.5" y="163.4648">deleted_at: datetime</text></g><!--class ExtractedTexts--><g id="elem_ExtractedTexts"><rect codeLine="18" fill="#F1F1F1" height="212.8828" id="ExtractedTexts" rx="2.5" ry="2.5" style="stroke:#181818;stroke-width:0.5;" width="236" x="94" y="230"/><ellipse cx="156.25" cy="246" fill="#ADD1B2" rx="11" ry="11" style="stroke:#181818;stroke-width:1.0;"/><path d="M159.8643,252.5 L152.1445,252.5 L152.1445,240.1069 L159.8643,240.1069 L159.8643,242.2651 L154.5933,242.2651 L154.5933,244.938 L159.3662,244.938 L159.3662,247.0962 L154.5933,247.0962 L154.5933,250.3418 L159.8643,250.3418 Z " fill="#000000"/><text fill="#000000" font-family="sans-serif" font-size="14" lengthAdjust="spacing" textLength="103" x="176.75" y="251.291">ExtractedTexts</text><line style="stroke:#181818;stroke-width:0.5;" x1="95" x2="329" y1="262" y2="262"/><ellipse cx="105" cy="275.7441" fill="#000000" rx="3" ry="3" style="stroke:#000000;stroke-width:1.0;"/><text fill="#000000" font-family="sans-serif" font-size="14" lengthAdjust="spacing" textLength="52" x="114" y="279.5352">id: ULID</text><line style="stroke:#181818;stroke-width:1.0;" x1="95" x2="329" y1="286.4883" y2="286.4883"/><ellipse cx="105" cy="300.2324" fill="#000000" rx="3" ry="3" style="stroke:#000000;stroke-width:1.0;"/><text fill="#000000" font-family="sans-serif" font-size="14" lengthAdjust="spacing" textLength="210" x="114" y="304.0234">extraction_result_id: ULID «FK»</text><ellipse cx="105" cy="316.7207" fill="#000000" rx="3" ry="3" style="stroke:#000000;stroke-width:1.0;"/><text fill="#000000" font-family="sans-serif" font-size="14" lengthAdjust="spacing" textLength="75" x="114" y="320.5117">text: string</text><ellipse cx="105" cy="333.209" fill="#000000" rx="3" ry="3" style="stroke:#000000;stroke-width:1.0;"/><text fill="#000000" font-family="sans-serif" font-size="14" lengthAdjust="spacing" textLength="85" x="114" y="337">top: number</text><ellipse cx="105" cy="349.6973" fill="#000000" rx="3" ry="3" style="stroke:#000000;stroke-width:1.0;"/><text fill="#000000" font-family="sans-serif" font-size="14" lengthAdjust="spacing" textLength="112" x="114" y="353.4883">bottom: number</text><ellipse cx="105" cy="366.1855" fill="#000000" rx="3" ry="3" style="stroke:#000000;stroke-width:1.0;"/><text fill="#000000" font-family="sans-serif" font-size="14" lengthAdjust="spacing" textLength="84" x="114" y="369.9766">left: number</text><ellipse cx="105" cy="382.6738" fill="#000000" rx="3" ry="3" style="stroke:#000000;stroke-width:1.0;"/><text fill="#000000" font-family="sans-serif" font-size="14" lengthAdjust="spacing" textLength="95" x="114" y="386.4648">right: number</text><ellipse cx="105" cy="399.1621" fill="#000000" rx="3" ry="3" style="stroke:#000000;stroke-width:1.0;"/><text fill="#000000" font-family="sans-serif" font-size="14" lengthAdjust="spacing" textLength="139" x="114" y="402.9531">created_at: datetime</text><ellipse cx="105" cy="415.6504" fill="#000000" rx="3" ry="3" style="stroke:#000000;stroke-width:1.0;"/><text fill="#000000" font-family="sans-serif" font-size="14" lengthAdjust="spacing" textLength="145" x="114" y="419.4414">updated_at: datetime</text><text fill="#000000" font-family="sans-serif" font-size="14" lengthAdjust="spacing" textLength="139" x="114" y="435.9297">deleted_at: datetime</text></g><!--link ExtractionResults to ExtractedTexts--><g id="link_ExtractionResults_ExtractedTexts"><path codeLine="32" d="M212,179.81 C212,192.95 212,206.62 212,220.17 " fill="none" id="ExtractionResults-ExtractedTexts" style="stroke:#181818;stroke-width:1.0;stroke-dasharray:7.0,7.0;"/><line style="stroke:#181818;stroke-width:1.0;" x1="208" x2="216" y1="175.9" y2="175.9"/><line style="stroke:#181818;stroke-width:1.0;" x1="208" x2="216" y1="178.9" y2="178.9"/><line style="stroke:#181818;stroke-width:1.0;" x1="212" x2="212" y1="179.9" y2="171.9"/><line style="stroke:#181818;stroke-width:1.0;" x1="212" x2="218" y1="220.01" y2="228.01"/><line style="stroke:#181818;stroke-width:1.0;" x1="212" x2="206" y1="220.01" y2="228.01"/><line style="stroke:#181818;stroke-width:1.0;" x1="212" x2="212" y1="220.01" y2="228.01"/><ellipse cx="212" cy="214.01" fill="none" rx="4" ry="4" style="stroke:#181818;stroke-width:1.0;"/></g><!--SRC=[hL51QiCm4Bpx5NiEn0yG8QUaKDfJsvoDR4rSKLioyWWIalozGcuBZajFlStEZBIpkt2nbrTgnb4kXKY8pbdN9ZJ6fW4CJC97RRi4RaK1Hykpx4yCkg7rxWLZx3WzNearIWxFZxjKhDUP6VFVwgl7PEfrY-e3PvNKC7KJyP53v1szaYP04wRIL68IeksHXJYOtmGHWmuBOH4TvWsdFtBZPy8gv16hRuziDWzFssrsCTbcSUa79McdDKAkQq_wVaPrE7961Dk-pvd_6tfvgEkrBFtbRWt59m00]--></g></svg>