<?xml version="1.0" encoding="us-ascii" standalone="no"?><svg xmlns="http://www.w3.org/2000/svg" xmlns:xlink="http://www.w3.org/1999/xlink" contentStyleType="text/css" height="789px" preserveAspectRatio="none" style="width:498px;height:789px;background:#FFFFFF;" version="1.1" viewBox="0 0 498 789" width="498px" zoomAndPan="magnify"><defs/><g><!--class JobStatus--><g id="elem_JobStatus"><rect codeLine="2" fill="#F1F1F1" height="97.4648" id="JobStatus" rx="2.5" ry="2.5" style="stroke:#181818;stroke-width:0.5;" width="96" x="226.5" y="39.98"/><ellipse cx="241.5" cy="55.98" fill="#EB937F" rx="11" ry="11" style="stroke:#181818;stroke-width:1.0;"/><path d="M245.1143,62.48 L237.3945,62.48 L237.3945,50.0869 L245.1143,50.0869 L245.1143,52.2451 L239.8433,52.2451 L239.8433,54.918 L244.6162,54.918 L244.6162,57.0762 L239.8433,57.0762 L239.8433,60.3218 L245.1143,60.3218 Z " fill="#000000"/><text fill="#000000" font-family="sans-serif" font-size="14" lengthAdjust="spacing" textLength="64" x="255.5" y="61.271">JobStatus</text><line style="stroke:#181818;stroke-width:0.5;" x1="227.5" x2="321.5" y1="71.98" y2="71.98"/><text fill="#000000" font-family="sans-serif" font-size="14" lengthAdjust="spacing" textLength="55" x="232.5" y="89.5152">running</text><text fill="#000000" font-family="sans-serif" font-size="14" lengthAdjust="spacing" textLength="72" x="232.5" y="106.0034">succeeded</text><text fill="#000000" font-family="sans-serif" font-size="14" lengthAdjust="spacing" textLength="38" x="232.5" y="122.4917">failed</text><line style="stroke:#181818;stroke-width:0.5;" x1="227.5" x2="321.5" y1="129.4448" y2="129.4448"/></g><!--class InputFileStatus--><g id="elem_InputFileStatus"><rect codeLine="8" fill="#F1F1F1" height="97.4648" id="InputFileStatus" rx="2.5" ry="2.5" style="stroke:#181818;stroke-width:0.5;" width="134" x="357.5" y="39.98"/><ellipse cx="372.5" cy="55.98" fill="#EB937F" rx="11" ry="11" style="stroke:#181818;stroke-width:1.0;"/><path d="M376.1143,62.48 L368.3945,62.48 L368.3945,50.0869 L376.1143,50.0869 L376.1143,52.2451 L370.8433,52.2451 L370.8433,54.918 L375.6162,54.918 L375.6162,57.0762 L370.8433,57.0762 L370.8433,60.3218 L376.1143,60.3218 Z " fill="#000000"/><text fill="#000000" font-family="sans-serif" font-size="14" lengthAdjust="spacing" textLength="102" x="386.5" y="61.271">InputFileStatus</text><line style="stroke:#181818;stroke-width:0.5;" x1="358.5" x2="490.5" y1="71.98" y2="71.98"/><text fill="#000000" font-family="sans-serif" font-size="14" lengthAdjust="spacing" textLength="55" x="363.5" y="89.5152">running</text><text fill="#000000" font-family="sans-serif" font-size="14" lengthAdjust="spacing" textLength="72" x="363.5" y="106.0034">succeeded</text><text fill="#000000" font-family="sans-serif" font-size="14" lengthAdjust="spacing" textLength="38" x="363.5" y="122.4917">failed</text><line style="stroke:#181818;stroke-width:0.5;" x1="358.5" x2="490.5" y1="129.4448" y2="129.4448"/></g><!--class Jobs--><g id="elem_Jobs"><rect codeLine="14" fill="#F1F1F1" height="163.418" id="Jobs" rx="2.5" ry="2.5" style="stroke:#181818;stroke-width:0.5;" width="185" x="7" y="7"/><ellipse cx="80.75" cy="23" fill="#ADD1B2" rx="11" ry="11" style="stroke:#181818;stroke-width:1.0;"/><path d="M84.3643,29.5 L76.6445,29.5 L76.6445,17.1069 L84.3643,17.1069 L84.3643,19.2651 L79.0933,19.2651 L79.0933,21.938 L83.8662,21.938 L83.8662,24.0962 L79.0933,24.0962 L79.0933,27.3418 L84.3643,27.3418 Z " fill="#000000"/><text fill="#000000" font-family="sans-serif" font-size="14" lengthAdjust="spacing" textLength="29" x="101.25" y="28.291">Jobs</text><line style="stroke:#181818;stroke-width:0.5;" x1="8" x2="191" y1="39" y2="39"/><ellipse cx="18" cy="52.7441" fill="#000000" rx="3" ry="3" style="stroke:#000000;stroke-width:1.0;"/><text fill="#000000" font-family="sans-serif" font-size="14" lengthAdjust="spacing" textLength="52" x="27" y="56.5352">id: ULID</text><line style="stroke:#181818;stroke-width:1.0;" x1="8" x2="191" y1="63.4883" y2="63.4883"/><ellipse cx="18" cy="77.2324" fill="#000000" rx="3" ry="3" style="stroke:#000000;stroke-width:1.0;"/><text fill="#000000" font-family="sans-serif" font-size="14" lengthAdjust="spacing" textLength="86" x="27" y="81.0234">name: string</text><ellipse cx="18" cy="93.7207" fill="#000000" rx="3" ry="3" style="stroke:#000000;stroke-width:1.0;"/><text fill="#000000" font-family="sans-serif" font-size="14" lengthAdjust="spacing" textLength="159" x="27" y="97.5117">original_file_key: string</text><ellipse cx="18" cy="110.209" fill="#000000" rx="3" ry="3" style="stroke:#000000;stroke-width:1.0;"/><text fill="#000000" font-family="sans-serif" font-size="14" lengthAdjust="spacing" textLength="113" x="27" y="114">status: JobStatus</text><ellipse cx="18" cy="126.6973" fill="#000000" rx="3" ry="3" style="stroke:#000000;stroke-width:1.0;"/><text fill="#000000" font-family="sans-serif" font-size="14" lengthAdjust="spacing" textLength="139" x="27" y="130.4883">created_at: datetime</text><ellipse cx="18" cy="143.1855" fill="#000000" rx="3" ry="3" style="stroke:#000000;stroke-width:1.0;"/><text fill="#000000" font-family="sans-serif" font-size="14" lengthAdjust="spacing" textLength="145" x="27" y="146.9766">updated_at: datetime</text><text fill="#000000" font-family="sans-serif" font-size="14" lengthAdjust="spacing" textLength="139" x="27" y="163.4648">deleted_at: datetime</text></g><!--class InputFiles--><g id="elem_InputFiles"><rect codeLine="25" fill="#F1F1F1" height="245.8594" id="InputFiles" rx="2.5" ry="2.5" style="stroke:#181818;stroke-width:0.5;" width="177" x="11" y="230.42"/><ellipse cx="61.75" cy="246.42" fill="#ADD1B2" rx="11" ry="11" style="stroke:#181818;stroke-width:1.0;"/><path d="M65.3643,252.92 L57.6445,252.92 L57.6445,240.5269 L65.3643,240.5269 L65.3643,242.6851 L60.0933,242.6851 L60.0933,245.358 L64.8662,245.358 L64.8662,247.5162 L60.0933,247.5162 L60.0933,250.7618 L65.3643,250.7618 Z " fill="#000000"/><text fill="#000000" font-family="sans-serif" font-size="14" lengthAdjust="spacing" textLength="67" x="82.25" y="251.711">InputFiles</text><line style="stroke:#181818;stroke-width:0.5;" x1="12" x2="187" y1="262.42" y2="262.42"/><ellipse cx="22" cy="276.1641" fill="#000000" rx="3" ry="3" style="stroke:#000000;stroke-width:1.0;"/><text fill="#000000" font-family="sans-serif" font-size="14" lengthAdjust="spacing" textLength="52" x="31" y="279.9552">id: ULID</text><line style="stroke:#181818;stroke-width:1.0;" x1="12" x2="187" y1="286.9083" y2="286.9083"/><ellipse cx="22" cy="300.6524" fill="#000000" rx="3" ry="3" style="stroke:#000000;stroke-width:1.0;"/><text fill="#000000" font-family="sans-serif" font-size="14" lengthAdjust="spacing" textLength="116" x="31" y="304.4434">job_id: ULID &#171;FK&#187;</text><ellipse cx="22" cy="317.1407" fill="#000000" rx="3" ry="3" style="stroke:#000000;stroke-width:1.0;"/><text fill="#000000" font-family="sans-serif" font-size="14" lengthAdjust="spacing" textLength="99" x="31" y="320.9317">file_key: string</text><ellipse cx="22" cy="333.629" fill="#000000" rx="3" ry="3" style="stroke:#000000;stroke-width:1.0;"/><text fill="#000000" font-family="sans-serif" font-size="14" lengthAdjust="spacing" textLength="114" x="31" y="337.42">file_name: string</text><ellipse cx="22" cy="350.1173" fill="#000000" rx="3" ry="3" style="stroke:#000000;stroke-width:1.0;"/><text fill="#000000" font-family="sans-serif" font-size="14" lengthAdjust="spacing" textLength="136" x="31" y="353.9083">content_type: string</text><ellipse cx="22" cy="366.6055" fill="#000000" rx="3" ry="3" style="stroke:#000000;stroke-width:1.0;"/><text fill="#000000" font-family="sans-serif" font-size="14" lengthAdjust="spacing" textLength="89" x="31" y="370.3966">size: number</text><ellipse cx="22" cy="383.0938" fill="#000000" rx="3" ry="3" style="stroke:#000000;stroke-width:1.0;"/><text fill="#000000" font-family="sans-serif" font-size="14" lengthAdjust="spacing" textLength="100" x="31" y="386.8848">width: number</text><ellipse cx="22" cy="399.5821" fill="#000000" rx="3" ry="3" style="stroke:#000000;stroke-width:1.0;"/><text fill="#000000" font-family="sans-serif" font-size="14" lengthAdjust="spacing" textLength="106" x="31" y="403.3731">height: number</text><ellipse cx="22" cy="416.0704" fill="#000000" rx="3" ry="3" style="stroke:#000000;stroke-width:1.0;"/><text fill="#000000" font-family="sans-serif" font-size="14" lengthAdjust="spacing" textLength="151" x="31" y="419.8614">status: InputFileStatus</text><ellipse cx="22" cy="432.5587" fill="#000000" rx="3" ry="3" style="stroke:#000000;stroke-width:1.0;"/><text fill="#000000" font-family="sans-serif" font-size="14" lengthAdjust="spacing" textLength="139" x="31" y="436.3497">created_at: datetime</text><ellipse cx="22" cy="449.047" fill="#000000" rx="3" ry="3" style="stroke:#000000;stroke-width:1.0;"/><text fill="#000000" font-family="sans-serif" font-size="14" lengthAdjust="spacing" textLength="145" x="31" y="452.838">updated_at: datetime</text><text fill="#000000" font-family="sans-serif" font-size="14" lengthAdjust="spacing" textLength="139" x="31" y="469.3262">deleted_at: datetime</text></g><!--class OutputFiles--><g id="elem_OutputFiles"><rect codeLine="41" fill="#F1F1F1" height="245.8594" id="OutputFiles" rx="2.5" ry="2.5" style="stroke:#181818;stroke-width:0.5;" width="184" x="223.5" y="230.42"/><ellipse cx="271.75" cy="246.42" fill="#ADD1B2" rx="11" ry="11" style="stroke:#181818;stroke-width:1.0;"/><path d="M275.3643,252.92 L267.6445,252.92 L267.6445,240.5269 L275.3643,240.5269 L275.3643,242.6851 L270.0933,242.6851 L270.0933,245.358 L274.8662,245.358 L274.8662,247.5162 L270.0933,247.5162 L270.0933,250.7618 L275.3643,250.7618 Z " fill="#000000"/><text fill="#000000" font-family="sans-serif" font-size="14" lengthAdjust="spacing" textLength="79" x="292.25" y="251.711">OutputFiles</text><line style="stroke:#181818;stroke-width:0.5;" x1="224.5" x2="406.5" y1="262.42" y2="262.42"/><ellipse cx="234.5" cy="276.1641" fill="#000000" rx="3" ry="3" style="stroke:#000000;stroke-width:1.0;"/><text fill="#000000" font-family="sans-serif" font-size="14" lengthAdjust="spacing" textLength="52" x="243.5" y="279.9552">id: ULID</text><line style="stroke:#181818;stroke-width:1.0;" x1="224.5" x2="406.5" y1="286.9083" y2="286.9083"/><ellipse cx="234.5" cy="300.6524" fill="#000000" rx="3" ry="3" style="stroke:#000000;stroke-width:1.0;"/><text fill="#000000" font-family="sans-serif" font-size="14" lengthAdjust="spacing" textLength="116" x="243.5" y="304.4434">job_id: ULID &#171;FK&#187;</text><ellipse cx="234.5" cy="317.1407" fill="#000000" rx="3" ry="3" style="stroke:#000000;stroke-width:1.0;"/><text fill="#000000" font-family="sans-serif" font-size="14" lengthAdjust="spacing" textLength="158" x="243.5" y="320.9317">input_file_id: ULID &#171;FK&#187;</text><ellipse cx="234.5" cy="333.629" fill="#000000" rx="3" ry="3" style="stroke:#000000;stroke-width:1.0;"/><text fill="#000000" font-family="sans-serif" font-size="14" lengthAdjust="spacing" textLength="99" x="243.5" y="337.42">file_key: string</text><ellipse cx="234.5" cy="350.1173" fill="#000000" rx="3" ry="3" style="stroke:#000000;stroke-width:1.0;"/><text fill="#000000" font-family="sans-serif" font-size="14" lengthAdjust="spacing" textLength="114" x="243.5" y="353.9083">file_name: string</text><ellipse cx="234.5" cy="366.6055" fill="#000000" rx="3" ry="3" style="stroke:#000000;stroke-width:1.0;"/><text fill="#000000" font-family="sans-serif" font-size="14" lengthAdjust="spacing" textLength="136" x="243.5" y="370.3966">content_type: string</text><ellipse cx="234.5" cy="383.0938" fill="#000000" rx="3" ry="3" style="stroke:#000000;stroke-width:1.0;"/><text fill="#000000" font-family="sans-serif" font-size="14" lengthAdjust="spacing" textLength="89" x="243.5" y="386.8848">size: number</text><ellipse cx="234.5" cy="399.5821" fill="#000000" rx="3" ry="3" style="stroke:#000000;stroke-width:1.0;"/><text fill="#000000" font-family="sans-serif" font-size="14" lengthAdjust="spacing" textLength="100" x="243.5" y="403.3731">width: number</text><ellipse cx="234.5" cy="416.0704" fill="#000000" rx="3" ry="3" style="stroke:#000000;stroke-width:1.0;"/><text fill="#000000" font-family="sans-serif" font-size="14" lengthAdjust="spacing" textLength="106" x="243.5" y="419.8614">height: number</text><ellipse cx="234.5" cy="432.5587" fill="#000000" rx="3" ry="3" style="stroke:#000000;stroke-width:1.0;"/><text fill="#000000" font-family="sans-serif" font-size="14" lengthAdjust="spacing" textLength="139" x="243.5" y="436.3497">created_at: datetime</text><ellipse cx="234.5" cy="449.047" fill="#000000" rx="3" ry="3" style="stroke:#000000;stroke-width:1.0;"/><text fill="#000000" font-family="sans-serif" font-size="14" lengthAdjust="spacing" textLength="145" x="243.5" y="452.838">updated_at: datetime</text><text fill="#000000" font-family="sans-serif" font-size="14" lengthAdjust="spacing" textLength="139" x="243.5" y="469.3262">deleted_at: datetime</text></g><!--class ExtractedTexts--><g id="elem_ExtractedTexts"><rect codeLine="57" fill="#F1F1F1" height="245.8594" id="ExtractedTexts" rx="2.5" ry="2.5" style="stroke:#181818;stroke-width:0.5;" width="194" x="218.5" y="536.28"/><ellipse cx="260.05" cy="552.28" fill="#ADD1B2" rx="11" ry="11" style="stroke:#181818;stroke-width:1.0;"/><path d="M263.6643,558.78 L255.9445,558.78 L255.9445,546.3869 L263.6643,546.3869 L263.6643,548.5451 L258.3933,548.5451 L258.3933,551.218 L263.1662,551.218 L263.1662,553.3762 L258.3933,553.3762 L258.3933,556.6218 L263.6643,556.6218 Z " fill="#000000"/><text fill="#000000" font-family="sans-serif" font-size="14" lengthAdjust="spacing" textLength="103" x="279.95" y="557.571">ExtractedTexts</text><line style="stroke:#181818;stroke-width:0.5;" x1="219.5" x2="411.5" y1="568.28" y2="568.28"/><ellipse cx="229.5" cy="582.0241" fill="#000000" rx="3" ry="3" style="stroke:#000000;stroke-width:1.0;"/><text fill="#000000" font-family="sans-serif" font-size="14" lengthAdjust="spacing" textLength="52" x="238.5" y="585.8152">id: ULID</text><line style="stroke:#181818;stroke-width:1.0;" x1="219.5" x2="411.5" y1="592.7683" y2="592.7683"/><ellipse cx="229.5" cy="606.5124" fill="#000000" rx="3" ry="3" style="stroke:#000000;stroke-width:1.0;"/><text fill="#000000" font-family="sans-serif" font-size="14" lengthAdjust="spacing" textLength="116" x="238.5" y="610.3034">job_id: ULID &#171;FK&#187;</text><ellipse cx="229.5" cy="623.0007" fill="#000000" rx="3" ry="3" style="stroke:#000000;stroke-width:1.0;"/><text fill="#000000" font-family="sans-serif" font-size="14" lengthAdjust="spacing" textLength="158" x="238.5" y="626.7917">input_file_id: ULID &#171;FK&#187;</text><ellipse cx="229.5" cy="639.489" fill="#000000" rx="3" ry="3" style="stroke:#000000;stroke-width:1.0;"/><text fill="#000000" font-family="sans-serif" font-size="14" lengthAdjust="spacing" textLength="168" x="238.5" y="643.28">output_file_id: ULID &#171;FK&#187;</text><ellipse cx="229.5" cy="655.9773" fill="#000000" rx="3" ry="3" style="stroke:#000000;stroke-width:1.0;"/><text fill="#000000" font-family="sans-serif" font-size="14" lengthAdjust="spacing" textLength="75" x="238.5" y="659.7683">text: string</text><ellipse cx="229.5" cy="672.4655" fill="#000000" rx="3" ry="3" style="stroke:#000000;stroke-width:1.0;"/><text fill="#000000" font-family="sans-serif" font-size="14" lengthAdjust="spacing" textLength="84" x="238.5" y="676.2566">top: decimal</text><ellipse cx="229.5" cy="688.9538" fill="#000000" rx="3" ry="3" style="stroke:#000000;stroke-width:1.0;"/><text fill="#000000" font-family="sans-serif" font-size="14" lengthAdjust="spacing" textLength="111" x="238.5" y="692.7448">bottom: decimal</text><ellipse cx="229.5" cy="705.4421" fill="#000000" rx="3" ry="3" style="stroke:#000000;stroke-width:1.0;"/><text fill="#000000" font-family="sans-serif" font-size="14" lengthAdjust="spacing" textLength="83" x="238.5" y="709.2331">left: decimal</text><ellipse cx="229.5" cy="721.9304" fill="#000000" rx="3" ry="3" style="stroke:#000000;stroke-width:1.0;"/><text fill="#000000" font-family="sans-serif" font-size="14" lengthAdjust="spacing" textLength="94" x="238.5" y="725.7214">right: decimal</text><ellipse cx="229.5" cy="738.4187" fill="#000000" rx="3" ry="3" style="stroke:#000000;stroke-width:1.0;"/><text fill="#000000" font-family="sans-serif" font-size="14" lengthAdjust="spacing" textLength="139" x="238.5" y="742.2097">created_at: datetime</text><ellipse cx="229.5" cy="754.907" fill="#000000" rx="3" ry="3" style="stroke:#000000;stroke-width:1.0;"/><text fill="#000000" font-family="sans-serif" font-size="14" lengthAdjust="spacing" textLength="145" x="238.5" y="758.698">updated_at: datetime</text><text fill="#000000" font-family="sans-serif" font-size="14" lengthAdjust="spacing" textLength="139" x="238.5" y="775.1863">deleted_at: datetime</text></g><!--link Jobs to InputFiles--><g id="link_Jobs_InputFiles"><path codeLine="73" d="M99.5,178.66 C99.5,197.5 99.5,191.97 99.5,212.15 " fill="none" id="Jobs-InputFiles" style="stroke:#181818;stroke-width:1.0;stroke-dasharray:7.0,7.0;"/><line style="stroke:#181818;stroke-width:1.0;" x1="95.5" x2="103.5" y1="174.66" y2="174.66"/><line style="stroke:#181818;stroke-width:1.0;" x1="95.5" x2="103.5" y1="177.66" y2="177.66"/><line style="stroke:#181818;stroke-width:1.0;" x1="99.5" x2="99.5" y1="178.66" y2="170.66"/><line style="stroke:#181818;stroke-width:1.0;" x1="99.5" x2="105.5" y1="222.15" y2="230.15"/><line style="stroke:#181818;stroke-width:1.0;" x1="99.5" x2="93.5" y1="222.15" y2="230.15"/><line style="stroke:#181818;stroke-width:1.0;" x1="99.5" x2="99.5" y1="222.15" y2="230.15"/><ellipse cx="99.5" cy="216.15" fill="none" rx="4" ry="4" style="stroke:#181818;stroke-width:1.0;"/></g><!--link InputFiles to OutputFiles--><g id="link_InputFiles_OutputFiles"><path codeLine="74" d="M196.09,353.35 C207.87,353.35 193.65,353.35 205.43,353.35 " fill="none" id="InputFiles-OutputFiles" style="stroke:#181818;stroke-width:1.0;stroke-dasharray:7.0,7.0;"/><line style="stroke:#181818;stroke-width:1.0;" x1="192.09" x2="192.09" y1="357.35" y2="349.35"/><line style="stroke:#181818;stroke-width:1.0;" x1="195.09" x2="195.09" y1="357.35" y2="349.35"/><line style="stroke:#181818;stroke-width:1.0;" x1="196.09" x2="188.09" y1="353.35" y2="353.35"/><line style="stroke:#181818;stroke-width:1.0;" x1="215.43" x2="223.43" y1="353.35" y2="347.35"/><line style="stroke:#181818;stroke-width:1.0;" x1="215.43" x2="223.43" y1="353.35" y2="359.35"/><line style="stroke:#181818;stroke-width:1.0;" x1="215.43" x2="223.43" y1="353.35" y2="353.35"/><ellipse cx="209.43" cy="353.35" fill="none" rx="4" ry="4" style="stroke:#181818;stroke-width:1.0;"/></g><!--link OutputFiles to ExtractedTexts--><g id="link_OutputFiles_ExtractedTexts"><path codeLine="75" d="M315.5,484.63 C315.5,504.25 315.5,508.56 315.5,528.18 " fill="none" id="OutputFiles-ExtractedTexts" style="stroke:#181818;stroke-width:1.0;stroke-dasharray:7.0,7.0;"/><line style="stroke:#181818;stroke-width:1.0;" x1="311.5" x2="319.5" y1="480.63" y2="480.63"/><line style="stroke:#181818;stroke-width:1.0;" x1="311.5" x2="319.5" y1="483.63" y2="483.63"/><line style="stroke:#181818;stroke-width:1.0;" x1="315.5" x2="315.5" y1="484.63" y2="476.63"/><line style="stroke:#181818;stroke-width:1.0;" x1="315.5" x2="323.5" y1="528.18" y2="536.18"/><line style="stroke:#181818;stroke-width:1.0;" x1="315.5" x2="307.5" y1="528.18" y2="536.18"/><line style="stroke:#181818;stroke-width:1.0;" x1="315.5" x2="315.5" y1="528.18" y2="536.18"/></g><!--SRC=[pPJ1JiCm38RlUOgS9sqFK4qxmQG14WVWNAM9smRQf4eTiRBnxhYfnXgs7K2TnCtz_YIsVoS5usj-PxCd5EXRlcESEs-CDWL5hPSIG86YE1Uwek2JCUYtR4pZSKteLnjHOzTd6zRFk5O9VtdOtD37V1w84JKal4Kt73JZrkb26r6bEHsJla4NgMt8dXmx25Gw40Wg5PXmHH7g6eBW6tLEu5n11IV2iUJlRYyN_cgpz43vShc-Nwq2FrjsW2UjIckG4gRODR7GwWy2P7i6Be1thR2CI0cwA3521sz-ZEew3Zrw_BD5kYzmcE__Sd1obswtw8Ia1S-mnScDic46btMaf94hQ1ig4wIkHHL0PX5j7RCASeo96umQe-cS2d-7_NwniBlHisEZ5zYBZjJHbMFZwzVhYlJORFO5]--></g></svg>