<?xml version="1.0" encoding="UTF-8" standalone="no"?><svg xmlns="http://www.w3.org/2000/svg" xmlns:xlink="http://www.w3.org/1999/xlink" contentStyleType="text/css" height="416px" preserveAspectRatio="none" style="width:407px;height:416px;background:#FFFFFF;" version="1.1" viewBox="0 0 407 416" width="407px" zoomAndPan="magnify"><defs/><g><!--class Status--><g id="elem_Status"><rect codeLine="2" fill="#F1F1F1" height="97.4648" id="Status" rx="2.5" ry="2.5" style="stroke:#181818;stroke-width:0.5;" width="84" x="7" y="23.5"/><ellipse cx="26.5" cy="39.5" fill="#EB937F" rx="11" ry="11" style="stroke:#181818;stroke-width:1.0;"/><path d="M30.1143,46 L22.3945,46 L22.3945,33.6069 L30.1143,33.6069 L30.1143,35.7651 L24.8433,35.7651 L24.8433,38.438 L29.6162,38.438 L29.6162,40.5962 L24.8433,40.5962 L24.8433,43.8418 L30.1143,43.8418 Z " fill="#000000"/><text fill="#000000" font-family="sans-serif" font-size="14" lengthAdjust="spacing" textLength="42" x="41.5" y="44.791">Status</text><line style="stroke:#181818;stroke-width:0.5;" x1="8" x2="90" y1="55.5" y2="55.5"/><text fill="#000000" font-family="sans-serif" font-size="14" lengthAdjust="spacing" textLength="55" x="13" y="73.0352">running</text><text fill="#000000" font-family="sans-serif" font-size="14" lengthAdjust="spacing" textLength="72" x="13" y="89.5234">succeeded</text><text fill="#000000" font-family="sans-serif" font-size="14" lengthAdjust="spacing" textLength="38" x="13" y="106.0117">failed</text><line style="stroke:#181818;stroke-width:0.5;" x1="8" x2="90" y1="112.9648" y2="112.9648"/></g><!--class Jobs--><g id="elem_Jobs"><rect codeLine="8" fill="#F1F1F1" height="130.4414" id="Jobs" rx="2.5" ry="2.5" style="stroke:#181818;stroke-width:0.5;" width="171" x="126.5" y="7"/><ellipse cx="193.25" cy="23" fill="#ADD1B2" rx="11" ry="11" style="stroke:#181818;stroke-width:1.0;"/><path d="M196.8643,29.5 L189.1445,29.5 L189.1445,17.1069 L196.8643,17.1069 L196.8643,19.2651 L191.5933,19.2651 L191.5933,21.938 L196.3662,21.938 L196.3662,24.0962 L191.5933,24.0962 L191.5933,27.3418 L196.8643,27.3418 Z " fill="#000000"/><text fill="#000000" font-family="sans-serif" font-size="14" lengthAdjust="spacing" textLength="29" x="213.75" y="28.291">Jobs</text><line style="stroke:#181818;stroke-width:0.5;" x1="127.5" x2="296.5" y1="39" y2="39"/><ellipse cx="137.5" cy="52.7441" fill="#000000" rx="3" ry="3" style="stroke:#000000;stroke-width:1.0;"/><text fill="#000000" font-family="sans-serif" font-size="14" lengthAdjust="spacing" textLength="52" x="146.5" y="56.5352">id: ULID</text><line style="stroke:#181818;stroke-width:1.0;" x1="127.5" x2="296.5" y1="63.4883" y2="63.4883"/><ellipse cx="137.5" cy="77.2324" fill="#000000" rx="3" ry="3" style="stroke:#000000;stroke-width:1.0;"/><text fill="#000000" font-family="sans-serif" font-size="14" lengthAdjust="spacing" textLength="91" x="146.5" y="81.0234">status: Status</text><ellipse cx="137.5" cy="93.7207" fill="#000000" rx="3" ry="3" style="stroke:#000000;stroke-width:1.0;"/><text fill="#000000" font-family="sans-serif" font-size="14" lengthAdjust="spacing" textLength="139" x="146.5" y="97.5117">created_at: datetime</text><ellipse cx="137.5" cy="110.209" fill="#000000" rx="3" ry="3" style="stroke:#000000;stroke-width:1.0;"/><text fill="#000000" font-family="sans-serif" font-size="14" lengthAdjust="spacing" textLength="145" x="146.5" y="114">updated_at: datetime</text><text fill="#000000" font-family="sans-serif" font-size="14" lengthAdjust="spacing" textLength="139" x="146.5" y="130.4883">deleted_at: datetime</text></g><!--class Files--><g id="elem_Files"><rect codeLine="17" fill="#F1F1F1" height="212.8828" id="Files" rx="2.5" ry="2.5" style="stroke:#181818;stroke-width:0.5;" width="171" x="23.5" y="197"/><ellipse cx="89.25" cy="213" fill="#ADD1B2" rx="11" ry="11" style="stroke:#181818;stroke-width:1.0;"/><path d="M92.8643,219.5 L85.1445,219.5 L85.1445,207.1069 L92.8643,207.1069 L92.8643,209.2651 L87.5933,209.2651 L87.5933,211.938 L92.3662,211.938 L92.3662,214.0962 L87.5933,214.0962 L87.5933,217.3418 L92.8643,217.3418 Z " fill="#000000"/><text fill="#000000" font-family="sans-serif" font-size="14" lengthAdjust="spacing" textLength="31" x="109.75" y="218.291">Files</text><line style="stroke:#181818;stroke-width:0.5;" x1="24.5" x2="193.5" y1="229" y2="229"/><ellipse cx="34.5" cy="242.7441" fill="#000000" rx="3" ry="3" style="stroke:#000000;stroke-width:1.0;"/><text fill="#000000" font-family="sans-serif" font-size="14" lengthAdjust="spacing" textLength="52" x="43.5" y="246.5352">id: ULID</text><line style="stroke:#181818;stroke-width:1.0;" x1="24.5" x2="193.5" y1="253.4883" y2="253.4883"/><ellipse cx="34.5" cy="267.2324" fill="#000000" rx="3" ry="3" style="stroke:#000000;stroke-width:1.0;"/><text fill="#000000" font-family="sans-serif" font-size="14" lengthAdjust="spacing" textLength="116" x="43.5" y="271.0234">job_id: ULID «FK»</text><ellipse cx="34.5" cy="283.7207" fill="#000000" rx="3" ry="3" style="stroke:#000000;stroke-width:1.0;"/><text fill="#000000" font-family="sans-serif" font-size="14" lengthAdjust="spacing" textLength="126" x="43.5" y="287.5117">is_output: number</text><ellipse cx="34.5" cy="300.209" fill="#000000" rx="3" ry="3" style="stroke:#000000;stroke-width:1.0;"/><text fill="#000000" font-family="sans-serif" font-size="14" lengthAdjust="spacing" textLength="99" x="43.5" y="304">file_key: string</text><ellipse cx="34.5" cy="316.6973" fill="#000000" rx="3" ry="3" style="stroke:#000000;stroke-width:1.0;"/><text fill="#000000" font-family="sans-serif" font-size="14" lengthAdjust="spacing" textLength="114" x="43.5" y="320.4883">file_name: string</text><ellipse cx="34.5" cy="333.1855" fill="#000000" rx="3" ry="3" style="stroke:#000000;stroke-width:1.0;"/><text fill="#000000" font-family="sans-serif" font-size="14" lengthAdjust="spacing" textLength="136" x="43.5" y="336.9766">content_type: string</text><ellipse cx="34.5" cy="349.6738" fill="#000000" rx="3" ry="3" style="stroke:#000000;stroke-width:1.0;"/><text fill="#000000" font-family="sans-serif" font-size="14" lengthAdjust="spacing" textLength="89" x="43.5" y="353.4648">size: number</text><ellipse cx="34.5" cy="366.1621" fill="#000000" rx="3" ry="3" style="stroke:#000000;stroke-width:1.0;"/><text fill="#000000" font-family="sans-serif" font-size="14" lengthAdjust="spacing" textLength="139" x="43.5" y="369.9531">created_at: datetime</text><ellipse cx="34.5" cy="382.6504" fill="#000000" rx="3" ry="3" style="stroke:#000000;stroke-width:1.0;"/><text fill="#000000" font-family="sans-serif" font-size="14" lengthAdjust="spacing" textLength="145" x="43.5" y="386.4414">updated_at: datetime</text><text fill="#000000" font-family="sans-serif" font-size="14" lengthAdjust="spacing" textLength="139" x="43.5" y="402.9297">deleted_at: datetime</text></g><!--class ExtractedTexts--><g id="elem_ExtractedTexts"><rect codeLine="31" fill="#F1F1F1" height="212.8828" id="ExtractedTexts" rx="2.5" ry="2.5" style="stroke:#181818;stroke-width:0.5;" width="171" x="229.5" y="197"/><ellipse cx="260.7" cy="213" fill="#ADD1B2" rx="11" ry="11" style="stroke:#181818;stroke-width:1.0;"/><path d="M264.3143,219.5 L256.5945,219.5 L256.5945,207.1069 L264.3143,207.1069 L264.3143,209.2651 L259.0433,209.2651 L259.0433,211.938 L263.8162,211.938 L263.8162,214.0962 L259.0433,214.0962 L259.0433,217.3418 L264.3143,217.3418 Z " fill="#000000"/><text fill="#000000" font-family="sans-serif" font-size="14" lengthAdjust="spacing" textLength="103" x="278.3" y="218.291">ExtractedTexts</text><line style="stroke:#181818;stroke-width:0.5;" x1="230.5" x2="399.5" y1="229" y2="229"/><ellipse cx="240.5" cy="242.7441" fill="#000000" rx="3" ry="3" style="stroke:#000000;stroke-width:1.0;"/><text fill="#000000" font-family="sans-serif" font-size="14" lengthAdjust="spacing" textLength="52" x="249.5" y="246.5352">id: ULID</text><line style="stroke:#181818;stroke-width:1.0;" x1="230.5" x2="399.5" y1="253.4883" y2="253.4883"/><ellipse cx="240.5" cy="267.2324" fill="#000000" rx="3" ry="3" style="stroke:#000000;stroke-width:1.0;"/><text fill="#000000" font-family="sans-serif" font-size="14" lengthAdjust="spacing" textLength="116" x="249.5" y="271.0234">job_id: ULID «FK»</text><ellipse cx="240.5" cy="283.7207" fill="#000000" rx="3" ry="3" style="stroke:#000000;stroke-width:1.0;"/><text fill="#000000" font-family="sans-serif" font-size="14" lengthAdjust="spacing" textLength="75" x="249.5" y="287.5117">text: string</text><ellipse cx="240.5" cy="300.209" fill="#000000" rx="3" ry="3" style="stroke:#000000;stroke-width:1.0;"/><text fill="#000000" font-family="sans-serif" font-size="14" lengthAdjust="spacing" textLength="85" x="249.5" y="304">top: number</text><ellipse cx="240.5" cy="316.6973" fill="#000000" rx="3" ry="3" style="stroke:#000000;stroke-width:1.0;"/><text fill="#000000" font-family="sans-serif" font-size="14" lengthAdjust="spacing" textLength="112" x="249.5" y="320.4883">bottom: number</text><ellipse cx="240.5" cy="333.1855" fill="#000000" rx="3" ry="3" style="stroke:#000000;stroke-width:1.0;"/><text fill="#000000" font-family="sans-serif" font-size="14" lengthAdjust="spacing" textLength="84" x="249.5" y="336.9766">left: number</text><ellipse cx="240.5" cy="349.6738" fill="#000000" rx="3" ry="3" style="stroke:#000000;stroke-width:1.0;"/><text fill="#000000" font-family="sans-serif" font-size="14" lengthAdjust="spacing" textLength="95" x="249.5" y="353.4648">right: number</text><ellipse cx="240.5" cy="366.1621" fill="#000000" rx="3" ry="3" style="stroke:#000000;stroke-width:1.0;"/><text fill="#000000" font-family="sans-serif" font-size="14" lengthAdjust="spacing" textLength="139" x="249.5" y="369.9531">created_at: datetime</text><ellipse cx="240.5" cy="382.6504" fill="#000000" rx="3" ry="3" style="stroke:#000000;stroke-width:1.0;"/><text fill="#000000" font-family="sans-serif" font-size="14" lengthAdjust="spacing" textLength="145" x="249.5" y="386.4414">updated_at: datetime</text><text fill="#000000" font-family="sans-serif" font-size="14" lengthAdjust="spacing" textLength="139" x="249.5" y="402.9297">deleted_at: datetime</text></g><!--link Jobs to ExtractedTexts--><g id="link_Jobs_ExtractedTexts"><path codeLine="45" d="M244.57,145.58 C250.65,159.12 257.14,173.57 263.62,188.01 " fill="none" id="Jobs-ExtractedTexts" style="stroke:#181818;stroke-width:1.0;stroke-dasharray:7.0,7.0;"/><line style="stroke:#181818;stroke-width:1.0;" x1="239.4356" x2="246.736" y1="143.896" y2="140.6244"/><line style="stroke:#181818;stroke-width:1.0;" x1="240.6625" x2="247.9629" y1="146.6337" y2="143.3621"/><line style="stroke:#181818;stroke-width:1.0;" x1="244.7216" x2="241.45" y1="145.9104" y2="138.61"/><line style="stroke:#181818;stroke-width:1.0;" x1="263.5265" x2="272.2813" y1="187.8349" y2="192.6674"/><line style="stroke:#181818;stroke-width:1.0;" x1="263.5265" x2="261.3387" y1="187.8349" y2="197.5926"/><line style="stroke:#181818;stroke-width:1.0;" x1="263.5265" x2="266.81" y1="187.8349" y2="195.13"/><ellipse cx="261.0639" cy="182.3636" fill="none" rx="4" ry="4" style="stroke:#181818;stroke-width:1.0;"/></g><!--link Jobs to Files--><g id="link_Jobs_Files"><path codeLine="46" d="M179.43,145.58 C173.35,159.12 166.86,173.57 160.38,188.01 " fill="none" id="Jobs-Files" style="stroke:#181818;stroke-width:1.0;stroke-dasharray:7.0,7.0;"/><line style="stroke:#181818;stroke-width:1.0;" x1="177.264" x2="184.5644" y1="140.6244" y2="143.896"/><line style="stroke:#181818;stroke-width:1.0;" x1="176.0371" x2="183.3375" y1="143.3621" y2="146.6337"/><line style="stroke:#181818;stroke-width:1.0;" x1="179.2784" x2="182.55" y1="145.9104" y2="138.61"/><line style="stroke:#181818;stroke-width:1.0;" x1="160.4735" x2="162.6613" y1="187.8349" y2="197.5926"/><line style="stroke:#181818;stroke-width:1.0;" x1="160.4735" x2="151.7187" y1="187.8349" y2="192.6674"/><line style="stroke:#181818;stroke-width:1.0;" x1="160.4735" x2="157.19" y1="187.8349" y2="195.13"/><ellipse cx="162.9361" cy="182.3636" fill="none" rx="4" ry="4" style="stroke:#181818;stroke-width:1.0;"/></g><!--SRC=[jLBBRi8m4BpdA_QC11yG8Kw0LE16UxOSUmEcYHtPQudm-FUk7AhAF0wLsjjuPZsQMHjjR65BacA0Sm7WexN6xXY5g1IYHisubgPXS2qAj6IeXvMhXlaH65t2n-PjpeVnE34XsPKtsqGfZv9G2qabQ4PaMan2xFGp0K1ZWm_2Ju0b1tgTuE0gySt2TBfSpsR3P10kKXVPatjNw1DRivVunBxav7ueVoEjR35ZbRF42GJrNIu4SyBCzCyRBuxafUA1TppIxwiJtyeIa-kom9KZScr6DLZdc_9cjwT_gfc-rEKocRZpNTTCIWzVV040]--></g></svg>